<?xml version="1.0" encoding="UTF-8"?>
<svg version="1.1" xmlns="http://www.w3.org/2000/svg" width="500" height="500">
<path d="M0 0 C0.9590625 0.7115625 0.9590625 0.7115625 1.9375 1.4375 C2.5975 0.1175 3.2575 -1.2025 3.9375 -2.5625 C8.56359198 -2.8852506 11.21776121 -2.40700614 14.9375 0.4375 C14.9375 1.0975 14.9375 1.7575 14.9375 2.4375 C15.5975 2.4375 16.2575 2.4375 16.9375 2.4375 C16.9375 3.4275 16.9375 4.4175 16.9375 5.4375 C18.5875 5.7675 20.2375 6.0975 21.9375 6.4375 C21.9375 5.4475 21.9375 4.4575 21.9375 3.4375 C23.87566735 3.5516866 25.81305099 3.67923423 27.75 3.8125 C28.82894531 3.88210937 29.90789062 3.95171875 31.01953125 4.0234375 C33.9375 4.4375 33.9375 4.4375 36.9375 6.4375 C36.9375 7.0975 36.9375 7.7575 36.9375 8.4375 C37.5975 8.4375 38.2575 8.4375 38.9375 8.4375 C40.92847846 11.42396769 41.87874926 14.03437262 42.9375 17.4375 C43.5975 17.4375 44.2575 17.4375 44.9375 17.4375 C57.05962212 19.51557808 57.05962212 19.51557808 60.9375 24.4375 C61.2675 25.4275 61.5975 26.4175 61.9375 27.4375 C62.9275 27.4375 63.9175 27.4375 64.9375 27.4375 C64.9375 28.4275 64.9375 29.4175 64.9375 30.4375 C62.9575 30.4375 60.9775 30.4375 58.9375 30.4375 C58.9375 31.0975 58.9375 31.7575 58.9375 32.4375 C59.5975 32.4375 60.2575 32.4375 60.9375 32.4375 C60.9375 33.0975 60.9375 33.7575 60.9375 34.4375 C61.5975 34.4375 62.2575 34.4375 62.9375 34.4375 C64.19414978 37.34350261 64.9375 39.23354584 64.9375 42.4375 C65.5975 42.4375 66.2575 42.4375 66.9375 42.4375 C66.9375 43.0975 66.9375 43.7575 66.9375 44.4375 C68.2575 44.7675 69.5775 45.0975 70.9375 45.4375 C70.9375 46.4275 70.9375 47.4175 70.9375 48.4375 C71.5975 48.4375 72.2575 48.4375 72.9375 48.4375 C72.9375 49.0975 72.9375 49.7575 72.9375 50.4375 C73.5975 50.4375 74.2575 50.4375 74.9375 50.4375 C77.05796792 53.97161321 77.46949289 57.38143835 77.9375 61.4375 C78.27373796 60.1465864 78.60639249 58.85473903 78.9375 57.5625 C79.123125 56.84320313 79.30875 56.12390625 79.5 55.3828125 C80.01063965 53.44460683 80.01063965 53.44460683 79.9375 51.4375 C80.9275 51.7675 81.9175 52.0975 82.9375 52.4375 C82.9375 54.4175 82.9375 56.3975 82.9375 58.4375 C84.5875 58.4375 86.2375 58.4375 87.9375 58.4375 C88.2675 59.4275 88.5975 60.4175 88.9375 61.4375 C89.5975 61.4375 90.2575 61.4375 90.9375 61.4375 C90.9375 62.0975 90.9375 62.7575 90.9375 63.4375 C91.5975 63.4375 92.2575 63.4375 92.9375 63.4375 C92.9375 64.4275 92.9375 65.4175 92.9375 66.4375 C93.5975 66.4375 94.2575 66.4375 94.9375 66.4375 C94.9375 67.0975 94.9375 67.7575 94.9375 68.4375 C95.5975 68.4375 96.2575 68.4375 96.9375 68.4375 C96.9375 69.0975 96.9375 69.7575 96.9375 70.4375 C97.5975 70.4375 98.2575 70.4375 98.9375 70.4375 C98.9375 71.0975 98.9375 71.7575 98.9375 72.4375 C99.5975 72.4375 100.2575 72.4375 100.9375 72.4375 C100.9375 73.0975 100.9375 73.7575 100.9375 74.4375 C101.5975 74.4375 102.2575 74.4375 102.9375 74.4375 C102.9375 75.0975 102.9375 75.7575 102.9375 76.4375 C103.5975 76.4375 104.2575 76.4375 104.9375 76.4375 C104.9375 77.7575 104.9375 79.0775 104.9375 80.4375 C105.55625 80.52 106.175 80.6025 106.8125 80.6875 C108.9375 81.4375 108.9375 81.4375 110.1875 83.5 C110.435 84.139375 110.6825 84.77875 110.9375 85.4375 C111.5975 85.4375 112.2575 85.4375 112.9375 85.4375 C112.9375 86.4275 112.9375 87.4175 112.9375 88.4375 C113.5975 88.4375 114.2575 88.4375 114.9375 88.4375 C114.9375 89.0975 114.9375 89.7575 114.9375 90.4375 C115.55625 90.685 116.175 90.9325 116.8125 91.1875 C119.34108627 92.67490369 119.65589004 93.87428009 120.9375 96.4375 C122.9710948 97.70554566 122.9710948 97.70554566 124.9375 98.4375 C124.9375 99.0975 124.9375 99.7575 124.9375 100.4375 C126.2575 100.7675 127.5775 101.0975 128.9375 101.4375 C128.9375 102.0975 128.9375 102.7575 128.9375 103.4375 C129.5975 103.4375 130.2575 103.4375 130.9375 103.4375 C130.9375 105.0875 130.9375 106.7375 130.9375 108.4375 C132.2575 109.0975 133.5775 109.7575 134.9375 110.4375 C134.9375 111.0975 134.9375 111.7575 134.9375 112.4375 C135.5975 112.4375 136.2575 112.4375 136.9375 112.4375 C136.9375 113.0975 136.9375 113.7575 136.9375 114.4375 C137.88625 114.64375 138.835 114.85 139.8125 115.0625 C142.9375 116.4375 142.9375 116.4375 144.3125 119.5625 C144.621875 120.985625 144.621875 120.985625 144.9375 122.4375 C145.5975 122.4375 146.2575 122.4375 146.9375 122.4375 C146.9375 123.0975 146.9375 123.7575 146.9375 124.4375 C147.55625 124.499375 148.175 124.56125 148.8125 124.625 C150.9375 125.4375 150.9375 125.4375 152.1875 128 C152.435 128.804375 152.6825 129.60875 152.9375 130.4375 C154.2575 130.4375 155.5775 130.4375 156.9375 130.4375 C156.2775 131.7575 155.6175 133.0775 154.9375 134.4375 C155.5975 134.4375 156.2575 134.4375 156.9375 134.4375 C156.9375 135.0975 156.9375 135.7575 156.9375 136.4375 C158.2575 136.7675 159.5775 137.0975 160.9375 137.4375 C161.2675 139.4175 161.5975 141.3975 161.9375 143.4375 C162.9275 143.4375 163.9175 143.4375 164.9375 143.4375 C164.751875 144.076875 164.56625 144.71625 164.375 145.375 C164.230625 146.055625 164.08625 146.73625 163.9375 147.4375 C164.2675 147.7675 164.5975 148.0975 164.9375 148.4375 C165.25673492 150.4947917 165.44911352 152.55363521 165.65625 154.625 C165.75748043 156.4542533 165.75748043 156.4542533 166.9375 157.4375 C167.1749624 159.70365354 167.35247358 161.97621984 167.5 164.25 C167.62568359 166.11591797 167.62568359 166.11591797 167.75390625 168.01953125 C167.88657264 170.48938423 167.9375 172.96408655 167.9375 175.4375 C167.2775 175.4375 166.6175 175.4375 165.9375 175.4375 C165.88851563 176.12457031 165.83953125 176.81164062 165.7890625 177.51953125 C165.71429688 178.42058594 165.63953125 179.32164062 165.5625 180.25 C165.49289062 181.14332031 165.42328125 182.03664062 165.3515625 182.95703125 C164.9375 185.4375 164.9375 185.4375 162.9375 188.4375 C162.2775 188.4375 161.6175 188.4375 160.9375 188.4375 C160.9375 190.4175 160.9375 192.3975 160.9375 194.4375 C160.2775 194.4375 159.6175 194.4375 158.9375 194.4375 C158.669375 195.55125 158.40125 196.665 158.125 197.8125 C156.9375 201.4375 156.9375 201.4375 153.9375 203.4375 C153.9375 204.4275 153.9375 205.4175 153.9375 206.4375 C151.60416667 206.4375 149.27083333 206.4375 146.9375 206.4375 C146.9375 207.7575 146.9375 209.0775 146.9375 210.4375 C146.2775 210.4375 145.6175 210.4375 144.9375 210.4375 C144.6075 212.0875 144.2775 213.7375 143.9375 215.4375 C143.2775 215.4375 142.6175 215.4375 141.9375 215.4375 C141.2775 217.0875 140.6175 218.7375 139.9375 220.4375 C138.9475 219.7775 137.9575 219.1175 136.9375 218.4375 C136.256875 219.8915625 136.256875 219.8915625 135.5625 221.375 C133.9375 224.4375 133.9375 224.4375 131.9375 225.4375 C131.9375 226.4275 131.9375 227.4175 131.9375 228.4375 C131.2775 228.911875 130.6175 229.38625 129.9375 229.875 C129.2775 230.390625 128.6175 230.90625 127.9375 231.4375 C127.9375 232.7575 127.9375 234.0775 127.9375 235.4375 C127.2775 235.4375 126.6175 235.4375 125.9375 235.4375 C125.6075 236.0975 125.2775 236.7575 124.9375 237.4375 C125.5975 237.4375 126.2575 237.4375 126.9375 237.4375 C126.9375 239.0875 126.9375 240.7375 126.9375 242.4375 C126.2775 242.4375 125.6175 242.4375 124.9375 242.4375 C124.9375 243.0975 124.9375 243.7575 124.9375 244.4375 C125.2675 244.7675 125.5975 245.0975 125.9375 245.4375 C125.9375 248.05863708 125.62457555 249.94685112 124.9375 252.4375 C124.2775 252.4375 123.6175 252.4375 122.9375 252.4375 C122.793125 253.015 122.64875 253.5925 122.5 254.1875 C121.97916667 256.27083333 121.45833333 258.35416667 120.9375 260.4375 C120.2775 260.4375 119.6175 260.4375 118.9375 260.4375 C118.9684375 261.6440625 118.9684375 261.6440625 119 262.875 C118.9375 265.4375 118.9375 265.4375 117.9375 266.4375 C116.27132885 266.47813832 114.60361905 266.480221 112.9375 266.4375 C112.2775 268.4175 111.6175 270.3975 110.9375 272.4375 C109.9475 272.1075 108.9575 271.7775 107.9375 271.4375 C106.38328271 271.35643314 104.82582973 271.32993102 103.26953125 271.33984375 C101.93051758 271.34467773 101.93051758 271.34467773 100.56445312 271.34960938 C99.63568359 271.35798828 98.70691406 271.36636719 97.75 271.375 C96.80962891 271.37951172 95.86925781 271.38402344 94.90039062 271.38867188 C92.57936288 271.40045374 90.25846356 271.41690442 87.9375 271.4375 C87.9375 270.7775 87.9375 270.1175 87.9375 269.4375 C86.9475 269.1075 85.9575 268.7775 84.9375 268.4375 C84.9375 267.7775 84.9375 267.1175 84.9375 266.4375 C84.03 266.52 83.1225 266.6025 82.1875 266.6875 C78.9375 266.4375 78.9375 266.4375 76.5625 264.5625 C74.9375 262.4375 74.9375 262.4375 74.9375 260.4375 C74.2775 260.4375 73.6175 260.4375 72.9375 260.4375 C72.9375 259.7775 72.9375 259.1175 72.9375 258.4375 C72.2775 258.4375 71.6175 258.4375 70.9375 258.4375 C70.9375 257.7775 70.9375 257.1175 70.9375 256.4375 C70.2775 256.4375 69.6175 256.4375 68.9375 256.4375 C68.9375 255.7775 68.9375 255.1175 68.9375 254.4375 C68.2775 254.4375 67.6175 254.4375 66.9375 254.4375 C66.9375 253.7775 66.9375 253.1175 66.9375 252.4375 C66.2775 252.4375 65.6175 252.4375 64.9375 252.4375 C64.2775 250.4575 63.6175 248.4775 62.9375 246.4375 C62.174375 246.47875 61.41125 246.52 60.625 246.5625 C57.9375 246.4375 57.9375 246.4375 54.9375 244.4375 C54.9375 245.7575 54.9375 247.0775 54.9375 248.4375 C54.2775 248.4375 53.6175 248.4375 52.9375 248.4375 C52.9375 249.0975 52.9375 249.7575 52.9375 250.4375 C52.2775 250.4375 51.6175 250.4375 50.9375 250.4375 C50.9375 252.4175 50.9375 254.3975 50.9375 256.4375 C49.6175 256.4375 48.2975 256.4375 46.9375 256.4375 C46.9375 257.7575 46.9375 259.0775 46.9375 260.4375 C46.2775 260.4375 45.6175 260.4375 44.9375 260.4375 C44.9375 261.0975 44.9375 261.7575 44.9375 262.4375 C44.2775 262.4375 43.6175 262.4375 42.9375 262.4375 C42.793125 263.05625 42.64875 263.675 42.5 264.3125 C41.9375 266.4375 41.9375 266.4375 40.9375 268.4375 C40.2775 268.4375 39.6175 268.4375 38.9375 268.4375 C38.6075 269.7575 38.2775 271.0775 37.9375 272.4375 C35.9575 272.1075 33.9775 271.7775 31.9375 271.4375 C31.6075 272.0975 31.2775 272.7575 30.9375 273.4375 C31.5975 273.4375 32.2575 273.4375 32.9375 273.4375 C32.6075 274.4275 32.2775 275.4175 31.9375 276.4375 C30.9475 276.4375 29.9575 276.4375 28.9375 276.4375 C28.9375 277.0975 28.9375 277.7575 28.9375 278.4375 C29.5975 278.4375 30.2575 278.4375 30.9375 278.4375 C31.22625 279.365625 31.515 280.29375 31.8125 281.25 C32.825 284.53541667 32.825 284.53541667 34.9375 287.4375 C34.2775 288.4275 33.6175 289.4175 32.9375 290.4375 C33.5975 290.4375 34.2575 290.4375 34.9375 290.4375 C34.9375 292.4175 34.9375 294.3975 34.9375 296.4375 C35.5975 296.4375 36.2575 296.4375 36.9375 296.4375 C36.9375 297.7575 36.9375 299.0775 36.9375 300.4375 C37.5975 300.4375 38.2575 300.4375 38.9375 300.4375 C39.1540625 302.04625 39.1540625 302.04625 39.375 303.6875 C39.77499442 306.35412949 40.21341924 308.85149729 40.9375 311.4375 C42.2575 311.7675 43.5775 312.0975 44.9375 312.4375 C44.710625 313.118125 44.48375 313.79875 44.25 314.5 C43.90186175 317.77249957 44.6479639 319.54348363 46.03125 322.4765625 C50.87898183 332.9660512 50.87898183 332.9660512 48.9375 338.4375 C49.5975 338.4375 50.2575 338.4375 50.9375 338.4375 C51.58660154 340.01949631 52.23164694 341.60315724 52.875 343.1875 C53.23464844 344.06921875 53.59429687 344.9509375 53.96484375 345.859375 C54.9375 348.4375 54.9375 348.4375 55.44140625 350.703125 C55.68697266 351.56164062 55.68697266 351.56164062 55.9375 352.4375 C56.5975 352.7675 57.2575 353.0975 57.9375 353.4375 C57.9375 355.0875 57.9375 356.7375 57.9375 358.4375 C58.5975 358.1075 59.2575 357.7775 59.9375 357.4375 C60.86815133 360.04332371 61.08667407 361.07948224 60 363.6875 C59.649375 364.265 59.29875 364.8425 58.9375 365.4375 C59.5975 365.4375 60.2575 365.4375 60.9375 365.4375 C60.9375 367.7475 60.9375 370.0575 60.9375 372.4375 C61.5975 372.4375 62.2575 372.4375 62.9375 372.4375 C62.9375 374.4175 62.9375 376.3975 62.9375 378.4375 C63.5975 378.4375 64.2575 378.4375 64.9375 378.4375 C66.73980168 382.26739106 67.13372241 385.21871808 66.9375 389.4375 C65.9475 389.7675 64.9575 390.0975 63.9375 390.4375 C63.9375 389.7775 63.9375 389.1175 63.9375 388.4375 C62.6175 388.7675 61.2975 389.0975 59.9375 389.4375 C59.9375 388.4475 59.9375 387.4575 59.9375 386.4375 C59.339375 386.293125 58.74125 386.14875 58.125 386 C56.37599596 385.5502561 54.65072977 385.00857659 52.9375 384.4375 C52.9375 383.7775 52.9375 383.1175 52.9375 382.4375 C51.6175 382.4375 50.2975 382.4375 48.9375 382.4375 C48.9375 383.0975 48.9375 383.7575 48.9375 384.4375 C47.2875 384.1075 45.6375 383.7775 43.9375 383.4375 C43.9375 382.4475 43.9375 381.4575 43.9375 380.4375 C41.17485711 379.84017181 38.77717231 379.4375 35.9375 379.4375 C35.6075 378.4475 35.2775 377.4575 34.9375 376.4375 C33.9475 376.4375 32.9575 376.4375 31.9375 376.4375 C31.9375 375.7775 31.9375 375.1175 31.9375 374.4375 C30.9475 374.4375 29.9575 374.4375 28.9375 374.4375 C28.81375 375.076875 28.69 375.71625 28.5625 376.375 C28.35625 377.055625 28.15 377.73625 27.9375 378.4375 C27.2775 378.7675 26.6175 379.0975 25.9375 379.4375 C25.6075 380.4275 25.2775 381.4175 24.9375 382.4375 C24.2775 382.4375 23.6175 382.4375 22.9375 382.4375 C22.6075 383.7575 22.2775 385.0775 21.9375 386.4375 C20.9475 386.4375 19.9575 386.4375 18.9375 386.4375 C18.793125 387.05625 18.64875 387.675 18.5 388.3125 C17.9375 390.4375 17.9375 390.4375 16.9375 392.4375 C16.2775 392.4375 15.6175 392.4375 14.9375 392.4375 C14.9375 393.7575 14.9375 395.0775 14.9375 396.4375 C14.2775 396.7675 13.6175 397.0975 12.9375 397.4375 C12.6075 398.4275 12.2775 399.4175 11.9375 400.4375 C10.9475 400.4375 9.9575 400.4375 8.9375 400.4375 C8.9375 401.0975 8.9375 401.7575 8.9375 402.4375 C8.2775 402.4375 7.6175 402.4375 6.9375 402.4375 C7.02 403.530625 7.1025 404.62375 7.1875 405.75 C6.9375 409.4375 6.9375 409.4375 4.9375 411.375 C4.2775 411.725625 3.6175 412.07625 2.9375 412.4375 C1.9375 409.4375 1.9375 409.4375 2.9375 406.4375 C2.2775 406.4375 1.6175 406.4375 0.9375 406.4375 C0.9375 405.7775 0.9375 405.1175 0.9375 404.4375 C0.2775 404.4375 -0.3825 404.4375 -1.0625 404.4375 C-1.17207031 403.62925781 -1.28164063 402.82101562 -1.39453125 401.98828125 C-1.55308594 400.91964844 -1.71164062 399.85101563 -1.875 398.75 C-2.10123047 397.16638672 -2.10123047 397.16638672 -2.33203125 395.55078125 C-2.8853046 392.40846962 -2.8853046 392.40846962 -4.65625 389.96875 C-6.52787111 386.599832 -6.17123133 384.41608196 -5.75 380.625 C-5.63011719 379.46355469 -5.51023437 378.30210937 -5.38671875 377.10546875 C-5.27972656 376.22503906 -5.17273438 375.34460938 -5.0625 374.4375 C-5.7225 374.4375 -6.3825 374.4375 -7.0625 374.4375 C-7.12308594 373.81101562 -7.18367187 373.18453125 -7.24609375 372.5390625 C-7.32988281 371.72179687 -7.41367187 370.90453125 -7.5 370.0625 C-7.58121094 369.25039063 -7.66242188 368.43828125 -7.74609375 367.6015625 C-7.95340114 365.39477195 -7.95340114 365.39477195 -9.0625 363.4375 C-9.13200541 361.89726004 -9.14702357 360.35415012 -9.125 358.8125 C-9.11597656 357.99523437 -9.10695313 357.17796875 -9.09765625 356.3359375 C-9.08025391 355.39621094 -9.08025391 355.39621094 -9.0625 354.4375 C-10.0525 354.4375 -11.0425 354.4375 -12.0625 354.4375 C-12.0625 351.4675 -12.0625 348.4975 -12.0625 345.4375 C-12.7225 345.4375 -13.3825 345.4375 -14.0625 345.4375 C-14.0625 342.1375 -14.0625 338.8375 -14.0625 335.4375 C-15.3825 335.1075 -16.7025 334.7775 -18.0625 334.4375 C-18.0625 333.4475 -18.0625 332.4575 -18.0625 331.4375 C-17.0725 331.4375 -16.0825 331.4375 -15.0625 331.4375 C-15.0625 328.4675 -15.0625 325.4975 -15.0625 322.4375 C-16.0525 322.1075 -17.0425 321.7775 -18.0625 321.4375 C-18.0625 319.1275 -18.0625 316.8175 -18.0625 314.4375 C-18.7225 316.0875 -19.3825 317.7375 -20.0625 319.4375 C-20.7225 319.4375 -21.3825 319.4375 -22.0625 319.4375 C-24.38345616 322.91893424 -24.55764472 325.32653554 -25.0625 329.4375 C-25.248125 330.118125 -25.43375 330.79875 -25.625 331.5 C-26.22569351 334.1602141 -26.12423087 336.72134152 -26.0625 339.4375 C-26.7225 339.4375 -27.3825 339.4375 -28.0625 339.4375 C-28.3925 341.7475 -28.7225 344.0575 -29.0625 346.4375 C-29.7225 346.4375 -30.3825 346.4375 -31.0625 346.4375 C-31.0625 347.4275 -31.0625 348.4175 -31.0625 349.4375 C-30.4025 349.4375 -29.7425 349.4375 -29.0625 349.4375 C-29.7225 352.4075 -30.3825 355.3775 -31.0625 358.4375 C-31.7225 358.4375 -32.3825 358.4375 -33.0625 358.4375 C-32.876875 359.200625 -32.69125 359.96375 -32.5 360.75 C-32.0625 363.4375 -32.0625 363.4375 -33.0625 366.4375 C-33.7225 366.4375 -34.3825 366.4375 -35.0625 366.4375 C-35.05089844 367.29214844 -35.03929687 368.14679688 -35.02734375 369.02734375 C-35.01832031 370.13207031 -35.00929687 371.23679687 -35 372.375 C-34.98839844 373.47714844 -34.97679687 374.57929688 -34.96484375 375.71484375 C-35.0625 378.4375 -35.0625 378.4375 -36.0625 379.4375 C-36.27025561 381.09954487 -36.42968255 382.76779491 -36.5625 384.4375 C-36.95138889 389.32638889 -36.95138889 389.32638889 -38.0625 390.4375 C-38.34898879 393.14777491 -38.51085421 395.85839608 -38.68359375 398.578125 C-39.06914476 401.48764395 -39.86100578 403.7718367 -41.0625 406.4375 C-43.9375 406.625 -43.9375 406.625 -47.0625 406.4375 C-49.0625 403.4375 -49.0625 403.4375 -49.0625 400.4375 C-50.7125 400.4375 -52.3625 400.4375 -54.0625 400.4375 C-54.165625 399.880625 -54.26875 399.32375 -54.375 398.75 C-55.19451007 395.99346614 -56.55946117 393.8799381 -58.0625 391.4375 C-58.3925 390.4475 -58.7225 389.4575 -59.0625 388.4375 C-60.7125 388.1075 -62.3625 387.7775 -64.0625 387.4375 C-63.7325 386.4475 -63.4025 385.4575 -63.0625 384.4375 C-64.3825 383.7775 -65.7025 383.1175 -67.0625 382.4375 C-67.0625 381.1175 -67.0625 379.7975 -67.0625 378.4375 C-68.114375 378.664375 -69.16625 378.89125 -70.25 379.125 C-74.45051417 379.46930444 -75.7787062 378.92522258 -79.0625 376.4375 C-79.206875 377.05625 -79.35125 377.675 -79.5 378.3125 C-80.0625 380.4375 -80.0625 380.4375 -81.0625 382.4375 C-83.23124252 381.93146008 -85.06217627 381.43766187 -87.0625 380.4375 C-87.165625 381.05625 -87.26875 381.675 -87.375 382.3125 C-88.0625 384.4375 -88.0625 384.4375 -91.0625 386.4375 C-92.3825 385.7775 -93.7025 385.1175 -95.0625 384.4375 C-95.0625 385.7575 -95.0625 387.0775 -95.0625 388.4375 C-98.3625 388.4375 -101.6625 388.4375 -105.0625 388.4375 C-105.15169829 383.0856027 -105.15627032 378.94673778 -103 374 C-102.01038438 371.29505065 -101.89938066 369.29208841 -102.0625 366.4375 C-101.4025 366.1075 -100.7425 365.7775 -100.0625 365.4375 C-100.0625 363.4575 -100.0625 361.4775 -100.0625 359.4375 C-99.4025 359.4375 -98.7425 359.4375 -98.0625 359.4375 C-98.5575 357.9525 -98.5575 357.9525 -99.0625 356.4375 C-97.7425 355.7775 -96.4225 355.1175 -95.0625 354.4375 C-95.805 353.756875 -95.805 353.756875 -96.5625 353.0625 C-98.0625 351.4375 -98.0625 351.4375 -98.0625 349.4375 C-97.4025 349.4375 -96.7425 349.4375 -96.0625 349.4375 C-95.7325 348.1175 -95.4025 346.7975 -95.0625 345.4375 C-94.4025 345.4375 -93.7425 345.4375 -93.0625 345.4375 C-92.98902344 344.40689453 -92.98902344 344.40689453 -92.9140625 343.35546875 C-92.83929688 342.45441406 -92.76453125 341.55335938 -92.6875 340.625 C-92.61789063 339.73167969 -92.54828125 338.83835937 -92.4765625 337.91796875 C-92.0625 335.4375 -92.0625 335.4375 -90.0625 332.4375 C-90.7225 331.7775 -91.3825 331.1175 -92.0625 330.4375 C-91.0725 330.1075 -90.0825 329.7775 -89.0625 329.4375 C-88.32793322 327.46469591 -88.32793322 327.46469591 -88 325.125 C-87.43658116 321.87863432 -86.65795317 319.33050015 -85.0625 316.4375 C-84.4025 316.4375 -83.7425 316.4375 -83.0625 316.4375 C-83.0625 315.1175 -83.0625 313.7975 -83.0625 312.4375 C-82.4025 312.4375 -81.7425 312.4375 -81.0625 312.4375 C-81.3925 311.839375 -81.7225 311.24125 -82.0625 310.625 C-83.0625 308.4375 -83.0625 308.4375 -83.0625 305.4375 C-81.5625 303.75 -81.5625 303.75 -80.0625 302.4375 C-80.3925 301.7775 -80.7225 301.1175 -81.0625 300.4375 C-81.5575 298.9525 -81.5575 298.9525 -82.0625 297.4375 C-80.7425 297.7675 -79.4225 298.0975 -78.0625 298.4375 C-77.918125 297.65375 -77.77375 296.87 -77.625 296.0625 C-77.0625 293.4375 -77.0625 293.4375 -76.0625 291.4375 C-76.46188767 289.33928785 -76.46188767 289.33928785 -77.0625 287.4375 C-76.0725 286.7775 -75.0825 286.1175 -74.0625 285.4375 C-73.1501203 283.13543085 -72.54869785 280.82365272 -71.90625 278.43359375 C-71.6278125 277.77488281 -71.349375 277.11617188 -71.0625 276.4375 C-70.0725 276.1075 -69.0825 275.7775 -68.0625 275.4375 C-68.0625 274.4475 -68.0625 273.4575 -68.0625 272.4375 C-69.0525 272.4375 -70.0425 272.4375 -71.0625 272.4375 C-71.0625 271.7775 -71.0625 271.1175 -71.0625 270.4375 C-73.0425 270.4375 -75.0225 270.4375 -77.0625 270.4375 C-77.0625 269.7775 -77.0625 269.1175 -77.0625 268.4375 C-78.7125 267.7775 -80.3625 267.1175 -82.0625 266.4375 C-82.0625 265.7775 -82.0625 265.1175 -82.0625 264.4375 C-83.0525 264.4375 -84.0425 264.4375 -85.0625 264.4375 C-89.0625 260.20892857 -89.0625 260.20892857 -89.0625 256.4375 C-89.7225 256.4375 -90.3825 256.4375 -91.0625 256.4375 C-93.90700614 252.71776121 -94.3852506 250.06359198 -94.0625 245.4375 C-95.0525 245.7675 -96.0425 246.0975 -97.0625 246.4375 C-98.0625 245.4375 -98.0625 245.4375 -98.125 242.375 C-98.104375 241.405625 -98.08375 240.43625 -98.0625 239.4375 C-98.7225 239.7675 -99.3825 240.0975 -100.0625 240.4375 C-99.7325 241.7575 -99.4025 243.0775 -99.0625 244.4375 C-100.3825 244.4375 -101.7025 244.4375 -103.0625 244.4375 C-103.0625 245.0975 -103.0625 245.7575 -103.0625 246.4375 C-103.7225 246.4375 -104.3825 246.4375 -105.0625 246.4375 C-105.0625 247.7575 -105.0625 249.0775 -105.0625 250.4375 C-105.7225 250.4375 -106.3825 250.4375 -107.0625 250.4375 C-107.0625 251.0975 -107.0625 251.7575 -107.0625 252.4375 C-107.7225 252.4375 -108.3825 252.4375 -109.0625 252.4375 C-109.0625 253.7575 -109.0625 255.0775 -109.0625 256.4375 C-109.7225 256.4375 -110.3825 256.4375 -111.0625 256.4375 C-111.0625 257.0975 -111.0625 257.7575 -111.0625 258.4375 C-111.7225 258.4375 -112.3825 258.4375 -113.0625 258.4375 C-113.5265625 259.6440625 -113.5265625 259.6440625 -114 260.875 C-115.0625 263.4375 -115.0625 263.4375 -116.0625 264.4375 C-117.72867115 264.47813832 -119.39638095 264.480221 -121.0625 264.4375 C-121.3925 265.7575 -121.7225 267.0775 -122.0625 268.4375 C-124.3725 268.4375 -126.6825 268.4375 -129.0625 268.4375 C-129.0625 269.0975 -129.0625 269.7575 -129.0625 270.4375 C-133.12475821 270.55388426 -137.1865863 270.62481373 -141.25 270.6875 C-142.40048828 270.72101563 -143.55097656 270.75453125 -144.73632812 270.7890625 C-145.84814453 270.80195313 -146.95996094 270.81484375 -148.10546875 270.828125 C-149.12664795 270.84907227 -150.14782715 270.87001953 -151.19995117 270.89160156 C-154.81050079 270.3188406 -156.48690217 268.98029332 -159.0625 266.4375 C-159.0625 265.7775 -159.0625 265.1175 -159.0625 264.4375 C-160.3825 264.1075 -161.7025 263.7775 -163.0625 263.4375 C-163.88888376 260.54515685 -164.0625 258.55007569 -164.0625 255.4375 C-164.7225 255.4375 -165.3825 255.4375 -166.0625 255.4375 C-166.03929687 254.34050781 -166.01609375 253.24351562 -165.9921875 252.11328125 C-165.97342079 250.658861 -165.95522156 249.20443336 -165.9375 247.75 C-165.92074219 247.02876953 -165.90398437 246.30753906 -165.88671875 245.56445312 C-165.84864693 241.39558882 -166.0956062 238.14433832 -168.0625 234.4375 C-169.0525 233.4475 -169.0525 233.4475 -170.0625 232.4375 C-170.0625 231.4475 -170.0625 230.4575 -170.0625 229.4375 C-171.50000191 227.74951173 -171.50000191 227.74951173 -173.0625 226.4375 C-172.7325 225.7775 -172.4025 225.1175 -172.0625 224.4375 C-172.7225 224.4375 -173.3825 224.4375 -174.0625 224.4375 C-174.145 223.81875 -174.2275 223.2 -174.3125 222.5625 C-174.87508459 220.25312433 -174.87508459 220.25312433 -177.125 219.1875 C-178.0840625 218.81625 -178.0840625 218.81625 -179.0625 218.4375 C-179.0625 217.7775 -179.0625 217.1175 -179.0625 216.4375 C-179.7225 216.4375 -180.3825 216.4375 -181.0625 216.4375 C-181.0625 215.7775 -181.0625 215.1175 -181.0625 214.4375 C-181.7225 214.4375 -182.3825 214.4375 -183.0625 214.4375 C-183.0625 213.7775 -183.0625 213.1175 -183.0625 212.4375 C-183.7225 212.4375 -184.3825 212.4375 -185.0625 212.4375 C-185.0625 211.7775 -185.0625 211.1175 -185.0625 210.4375 C-185.7225 210.4375 -186.3825 210.4375 -187.0625 210.4375 C-187.0625 209.7775 -187.0625 209.1175 -187.0625 208.4375 C-187.7225 208.4375 -188.3825 208.4375 -189.0625 208.4375 C-189.0625 207.7775 -189.0625 207.1175 -189.0625 206.4375 C-191.5375 207.4275 -191.5375 207.4275 -194.0625 208.4375 C-194.041875 207.674375 -194.02125 206.91125 -194 206.125 C-193.93307159 203.33564214 -193.93307159 203.33564214 -195.0625 200.4375 C-196.0525 200.4375 -197.0425 200.4375 -198.0625 200.4375 C-198.3925 199.1175 -198.7225 197.7975 -199.0625 196.4375 C-199.7225 196.4375 -200.3825 196.4375 -201.0625 196.4375 C-201.26746094 195.87160156 -201.47242188 195.30570313 -201.68359375 194.72265625 C-201.95300781 193.98917969 -202.22242188 193.25570312 -202.5 192.5 C-202.90025391 191.40365234 -202.90025391 191.40365234 -203.30859375 190.28515625 C-203.91636948 188.45444322 -203.91636948 188.45444322 -205.0625 187.4375 C-205.59900099 184.96238197 -206.02642114 182.47468816 -206.46484375 179.98046875 C-206.95793983 177.42374746 -206.95793983 177.42374746 -208.19140625 175.23828125 C-208.47886719 174.64402344 -208.76632813 174.04976562 -209.0625 173.4375 C-208.5675 172.4475 -208.5675 172.4475 -208.0625 171.4375 C-207.87827292 168.93435107 -207.73701652 166.44386971 -207.625 163.9375 C-206.61173515 144.78207155 -206.61173515 144.78207155 -200.0625 138.4375 C-199.5675 137.4475 -199.5675 137.4475 -199.0625 136.4375 C-198.4025 136.4375 -197.7425 136.4375 -197.0625 136.4375 C-196.98 135.86 -196.8975 135.2825 -196.8125 134.6875 C-195.8549861 131.8149583 -194.24821625 130.48660899 -192.0625 128.4375 C-191.7325 127.7775 -191.4025 127.1175 -191.0625 126.4375 C-190.4025 126.4375 -189.7425 126.4375 -189.0625 126.4375 C-188.815 125.633125 -188.5675 124.82875 -188.3125 124 C-187.0625 121.4375 -187.0625 121.4375 -184.9375 120.625 C-184.31875 120.563125 -183.7 120.50125 -183.0625 120.4375 C-182.98 119.695 -182.8975 118.9525 -182.8125 118.1875 C-181.90886905 114.87418651 -180.73067101 113.55634168 -178.0625 111.4375 C-177.0725 111.4375 -176.0825 111.4375 -175.0625 111.4375 C-174.959375 110.798125 -174.85625 110.15875 -174.75 109.5 C-174.523125 108.819375 -174.29625 108.13875 -174.0625 107.4375 C-173.0725 107.1075 -172.0825 106.7775 -171.0625 106.4375 C-170.37763275 105.11342331 -169.71379797 103.77840759 -169.0625 102.4375 C-167.0625 100.1875 -167.0625 100.1875 -165.0625 98.4375 C-164.4025 98.4375 -163.7425 98.4375 -163.0625 98.4375 C-163.0625 97.7775 -163.0625 97.1175 -163.0625 96.4375 C-162.4025 96.4375 -161.7425 96.4375 -161.0625 96.4375 C-161.0625 95.7775 -161.0625 95.1175 -161.0625 94.4375 C-160.4025 94.4375 -159.7425 94.4375 -159.0625 94.4375 C-158.4025 93.1175 -157.7425 91.7975 -157.0625 90.4375 C-156.4025 90.4375 -155.7425 90.4375 -155.0625 90.4375 C-154.80726563 89.86128906 -154.55203125 89.28507812 -154.2890625 88.69140625 C-152.5222641 85.44477353 -150.04339368 83.01922573 -147.5234375 80.33984375 C-145.75795953 78.44071153 -145.75795953 78.44071153 -146.0625 75.4375 C-144.4125 75.1075 -142.7625 74.7775 -141.0625 74.4375 C-141.0625 72.7875 -141.0625 71.1375 -141.0625 69.4375 C-139.4125 68.7775 -137.7625 68.1175 -136.0625 67.4375 C-136.0625 66.7775 -136.0625 66.1175 -136.0625 65.4375 C-135.423125 65.14875 -134.78375 64.86 -134.125 64.5625 C-131.91043921 63.60926549 -131.91043921 63.60926549 -131.0625 61.4375 C-129.72916667 61.10416667 -128.39583333 60.77083333 -127.0625 60.4375 C-126.216875 59.90125 -125.37125 59.365 -124.5 58.8125 C-123.695625 58.35875 -122.89125 57.905 -122.0625 57.4375 C-120.5775 57.9325 -120.5775 57.9325 -119.0625 58.4375 C-118.5675 60.9125 -118.5675 60.9125 -118.0625 63.4375 C-118.145 62.2 -118.2275 60.9625 -118.3125 59.6875 C-118.32981616 56.41474568 -118.31371458 55.73733676 -116.125 53.125 C-115.444375 52.568125 -114.76375 52.01125 -114.0625 51.4375 C-113.7325 50.4475 -113.4025 49.4575 -113.0625 48.4375 C-112.4025 48.4375 -111.7425 48.4375 -111.0625 48.4375 C-110.7325 46.7875 -110.4025 45.1375 -110.0625 43.4375 C-108.7425 43.4375 -107.4225 43.4375 -106.0625 43.4375 C-107.0525 42.4475 -108.0425 41.4575 -109.0625 40.4375 C-108.0725 39.7775 -107.0825 39.1175 -106.0625 38.4375 C-105.4025 38.7675 -104.7425 39.0975 -104.0625 39.4375 C-103.7325 38.1175 -103.4025 36.7975 -103.0625 35.4375 C-102.4025 35.4375 -101.7425 35.4375 -101.0625 35.4375 C-100.5984375 34.4784375 -100.5984375 34.4784375 -100.125 33.5 C-99.0625 31.4375 -99.0625 31.4375 -98.0625 30.4375 C-90.47213855 29.23268072 -90.47213855 29.23268072 -88.0625 30.4375 C-88.0625 29.7775 -88.0625 29.1175 -88.0625 28.4375 C-91.3625 28.7675 -94.6625 29.0975 -98.0625 29.4375 C-98.5575 27.9525 -98.5575 27.9525 -99.0625 26.4375 C-96.30683749 23.68183749 -93.84710367 23.97815767 -90.0625 23.4375 C-89.4025 22.7775 -88.7425 22.1175 -88.0625 21.4375 C-85.9375 20.8125 -85.9375 20.8125 -84.0625 20.4375 C-84.7225 20.4375 -85.3825 20.4375 -86.0625 20.4375 C-86.0625 19.4475 -86.0625 18.4575 -86.0625 17.4375 C-85.0725 17.4375 -84.0825 17.4375 -83.0625 17.4375 C-83.0625 18.0975 -83.0625 18.7575 -83.0625 19.4375 C-82.4025 19.4375 -81.7425 19.4375 -81.0625 19.4375 C-81.0625 18.4475 -81.0625 17.4575 -81.0625 16.4375 C-82.3825 16.1075 -83.7025 15.7775 -85.0625 15.4375 C-84.0625 12.4375 -84.0625 12.4375 -81.0625 10.4375 C-81.5575 8.9525 -81.5575 8.9525 -82.0625 7.4375 C-81.27875 7.355 -80.495 7.2725 -79.6875 7.1875 C-76.9178382 6.72900599 -76.9178382 6.72900599 -75.9375 4.4375 C-75.64875 3.7775 -75.36 3.1175 -75.0625 2.4375 C-74.0725 2.1075 -73.0825 1.7775 -72.0625 1.4375 C-72.0625 2.0975 -72.0625 2.7575 -72.0625 3.4375 C-71.134375 3.4375 -70.20625 3.4375 -69.25 3.4375 C-67.1875 3.4375 -65.125 3.4375 -63.0625 3.4375 C-63.0625 4.4275 -63.0625 5.4175 -63.0625 6.4375 C-62.0725 6.1075 -61.0825 5.7775 -60.0625 5.4375 C-60.0625 4.7775 -60.0625 4.1175 -60.0625 3.4375 C-54.10212792 0.0315731 -48.95409928 0.24353823 -42.171875 0.52734375 C-38.89319818 0.70772562 -38.89319818 0.70772562 -36.0625 -1.5625 C-33.46875 -1.79296875 -33.46875 -1.79296875 -30.5625 -1.75 C-29.6034375 -1.74355469 -28.644375 -1.73710938 -27.65625 -1.73046875 C-25.0625 -1.5625 -25.0625 -1.5625 -22.0625 -0.5625 C-22.0625 0.0975 -22.0625 0.7575 -22.0625 1.4375 C-19.19525314 0.86405063 -18.2010485 0.5760485 -16.0625 -1.5625 C-10.70025145 -3.42171514 -4.96294273 -2.53211364 0 0 Z M-41.0625 3.4375 C-40.7325 4.4275 -40.4025 5.4175 -40.0625 6.4375 C-40.0625 5.4475 -40.0625 4.4575 -40.0625 3.4375 C-40.3925 3.4375 -40.7225 3.4375 -41.0625 3.4375 Z M44.9375 19.4375 C45.2675 20.4275 45.5975 21.4175 45.9375 22.4375 C45.9375 21.4475 45.9375 20.4575 45.9375 19.4375 C45.6075 19.4375 45.2775 19.4375 44.9375 19.4375 Z M-21.0625 20.4375 C-20.4025 21.0975 -19.7425 21.7575 -19.0625 22.4375 C-19.0625 21.7775 -19.0625 21.1175 -19.0625 20.4375 C-19.7225 20.4375 -20.3825 20.4375 -21.0625 20.4375 Z M-20.0625 24.4375 C-20.0625 27.4375 -20.0625 27.4375 -20.0625 27.4375 Z M22.9375 24.4375 C23.2675 25.0975 23.5975 25.7575 23.9375 26.4375 C24.2675 25.7775 24.5975 25.1175 24.9375 24.4375 C24.2775 24.4375 23.6175 24.4375 22.9375 24.4375 Z M-62.0625 26.4375 C-62.0625 29.4375 -62.0625 29.4375 -62.0625 29.4375 Z M46.9375 28.4375 C47.2675 29.0975 47.5975 29.7575 47.9375 30.4375 C48.2675 29.7775 48.5975 29.1175 48.9375 28.4375 C48.2775 28.4375 47.6175 28.4375 46.9375 28.4375 Z M-79.0625 40.4375 C-78.0625 42.4375 -78.0625 42.4375 -78.0625 42.4375 Z M-63.0625 42.4375 C-62.7325 43.4275 -62.4025 44.4175 -62.0625 45.4375 C-62.0625 44.4475 -62.0625 43.4575 -62.0625 42.4375 C-62.3925 42.4375 -62.7225 42.4375 -63.0625 42.4375 Z M20.9375 42.4375 C21.2675 43.0975 21.5975 43.7575 21.9375 44.4375 C22.2675 43.7775 22.5975 43.1175 22.9375 42.4375 C22.2775 42.4375 21.6175 42.4375 20.9375 42.4375 Z M-23.0625 50.4375 C-22.0625 52.4375 -22.0625 52.4375 -22.0625 52.4375 Z M-97.0625 52.4375 C-93.0625 53.4375 -93.0625 53.4375 -93.0625 53.4375 Z M-45.0625 52.4375 C-45.0625 53.0975 -45.0625 53.7575 -45.0625 54.4375 C-44.4025 54.1075 -43.7425 53.7775 -43.0625 53.4375 C-43.7225 53.1075 -44.3825 52.7775 -45.0625 52.4375 Z M-21.0625 52.4375 C-20.7325 54.0875 -20.4025 55.7375 -20.0625 57.4375 C-19.7325 56.7775 -19.4025 56.1175 -19.0625 55.4375 C-19.3925 54.7775 -19.7225 54.1175 -20.0625 53.4375 C-19.4025 53.1075 -18.7425 52.7775 -18.0625 52.4375 C-19.0525 52.4375 -20.0425 52.4375 -21.0625 52.4375 Z M0.9375 52.4375 C1.9275 52.7675 2.9175 53.0975 3.9375 53.4375 C3.6075 54.4275 3.2775 55.4175 2.9375 56.4375 C3.5975 56.4375 4.2575 56.4375 4.9375 56.4375 C5.5975 55.1175 6.2575 53.7975 6.9375 52.4375 C4.9575 52.4375 2.9775 52.4375 0.9375 52.4375 Z M-85.0625 56.4375 C-84.7325 57.0975 -84.4025 57.7575 -84.0625 58.4375 C-83.7325 57.7775 -83.4025 57.1175 -83.0625 56.4375 C-83.7225 56.4375 -84.3825 56.4375 -85.0625 56.4375 Z M-97.0625 60.4375 C-96.7325 61.4275 -96.4025 62.4175 -96.0625 63.4375 C-95.4025 63.1075 -94.7425 62.7775 -94.0625 62.4375 C-94.3925 61.7775 -94.7225 61.1175 -95.0625 60.4375 C-95.7225 60.4375 -96.3825 60.4375 -97.0625 60.4375 Z M-101.0625 62.4375 C-101.0625 64.4175 -101.0625 66.3975 -101.0625 68.4375 C-100.4025 68.4375 -99.7425 68.4375 -99.0625 68.4375 C-98.7325 69.0975 -98.4025 69.7575 -98.0625 70.4375 C-97.7325 69.4475 -97.4025 68.4575 -97.0625 67.4375 C-94.0925 67.9325 -94.0925 67.9325 -91.0625 68.4375 C-91.0625 67.1175 -91.0625 65.7975 -91.0625 64.4375 C-92.7125 64.7675 -94.3625 65.0975 -96.0625 65.4375 C-96.0625 64.7775 -96.0625 64.1175 -96.0625 63.4375 C-97.7125 63.1075 -99.3625 62.7775 -101.0625 62.4375 Z M53.9375 62.4375 C54.5975 63.7575 55.2575 65.0775 55.9375 66.4375 C55.9375 65.1175 55.9375 63.7975 55.9375 62.4375 C55.2775 62.4375 54.6175 62.4375 53.9375 62.4375 Z M60.9375 64.4375 C61.2675 65.7575 61.5975 67.0775 61.9375 68.4375 C62.2675 67.1175 62.5975 65.7975 62.9375 64.4375 C62.2775 64.4375 61.6175 64.4375 60.9375 64.4375 Z M-83.0625 68.4375 C-82.7325 69.4275 -82.4025 70.4175 -82.0625 71.4375 C-81.7325 70.4475 -81.4025 69.4575 -81.0625 68.4375 C-81.7225 68.4375 -82.3825 68.4375 -83.0625 68.4375 Z M52.9375 68.4375 C53.9375 70.4375 53.9375 70.4375 53.9375 70.4375 Z M56.9375 68.4375 C56.9375 69.0975 56.9375 69.7575 56.9375 70.4375 C55.9475 70.9325 55.9475 70.9325 54.9375 71.4375 C55.9275 71.7675 56.9175 72.0975 57.9375 72.4375 C57.6075 71.1175 57.2775 69.7975 56.9375 68.4375 Z M-98.0625 70.4375 C-97.4025 71.0975 -96.7425 71.7575 -96.0625 72.4375 C-95.7325 71.7775 -95.4025 71.1175 -95.0625 70.4375 C-96.0525 70.4375 -97.0425 70.4375 -98.0625 70.4375 Z M-115.0625 74.4375 C-114.7325 75.7575 -114.4025 77.0775 -114.0625 78.4375 C-113.7325 77.1175 -113.4025 75.7975 -113.0625 74.4375 C-113.7225 74.4375 -114.3825 74.4375 -115.0625 74.4375 Z M-41.0625 72.4375 C-41.0625 73.0975 -41.0625 73.7575 -41.0625 74.4375 C-43.0425 74.4375 -45.0225 74.4375 -47.0625 74.4375 C-47.0625 75.0975 -47.0625 75.7575 -47.0625 76.4375 C-48.0525 76.4375 -49.0425 76.4375 -50.0625 76.4375 C-50.0625 75.7775 -50.0625 75.1175 -50.0625 74.4375 C-53.0325 74.4375 -56.0025 74.4375 -59.0625 74.4375 C-58.5675 75.9225 -58.5675 75.9225 -58.0625 77.4375 C-60.5375 76.9425 -60.5375 76.9425 -63.0625 76.4375 C-63.3925 77.0975 -63.7225 77.7575 -64.0625 78.4375 C-65.7125 78.4375 -67.3625 78.4375 -69.0625 78.4375 C-69.0625 79.0975 -69.0625 79.7575 -69.0625 80.4375 C-69.92875 80.56125 -69.92875 80.56125 -70.8125 80.6875 C-73.74044601 81.663482 -75.11494537 83.07261223 -77.0625 85.4375 C-77.0625 86.4275 -77.0625 87.4175 -77.0625 88.4375 C-78.3825 88.4375 -79.7025 88.4375 -81.0625 88.4375 C-81.0625 89.0975 -81.0625 89.7575 -81.0625 90.4375 C-81.7225 90.4375 -82.3825 90.4375 -83.0625 90.4375 C-83.0625 91.0975 -83.0625 91.7575 -83.0625 92.4375 C-84.3825 92.7675 -85.7025 93.0975 -87.0625 93.4375 C-86.7325 94.0975 -86.4025 94.7575 -86.0625 95.4375 C-88.3725 95.7675 -90.6825 96.0975 -93.0625 96.4375 C-93.0625 97.0975 -93.0625 97.7575 -93.0625 98.4375 C-93.7225 98.7675 -94.3825 99.0975 -95.0625 99.4375 C-94.4025 99.4375 -93.7425 99.4375 -93.0625 99.4375 C-94.0625 101.4375 -94.0625 101.4375 -97.0625 103.4375 C-97.9674261 105.3894572 -97.9674261 105.3894572 -98.0625 107.4375 C-97.4025 108.0975 -96.7425 108.7575 -96.0625 109.4375 C-97.7125 110.4275 -99.3625 111.4175 -101.0625 112.4375 C-100.7325 113.7575 -100.4025 115.0775 -100.0625 116.4375 C-98.5775 115.9425 -98.5775 115.9425 -97.0625 115.4375 C-97.0625 116.4275 -97.0625 117.4175 -97.0625 118.4375 C-97.7225 118.4375 -98.3825 118.4375 -99.0625 118.4375 C-101.59496081 121.74733524 -101.59496081 121.74733524 -101.75 125.75 C-101.523125 126.306875 -101.29625 126.86375 -101.0625 127.4375 C-100.4025 127.4375 -99.7425 127.4375 -99.0625 127.4375 C-100.0525 128.4275 -101.0425 129.4175 -102.0625 130.4375 C-102.0625 129.7775 -102.0625 129.1175 -102.0625 128.4375 C-103.0525 128.1075 -104.0425 127.7775 -105.0625 127.4375 C-105.0625 129.4175 -105.0625 131.3975 -105.0625 133.4375 C-104.4025 133.4375 -103.7425 133.4375 -103.0625 133.4375 C-104.0525 135.9125 -104.0525 135.9125 -105.0625 138.4375 C-104.4025 138.4375 -103.7425 138.4375 -103.0625 138.4375 C-103.0625 140.4175 -103.0625 142.3975 -103.0625 144.4375 C-101.7425 144.7675 -100.4225 145.0975 -99.0625 145.4375 C-99.7225 146.4275 -100.3825 147.4175 -101.0625 148.4375 C-101.0625 149.7575 -101.0625 151.0775 -101.0625 152.4375 C-100.4025 152.4375 -99.7425 152.4375 -99.0625 152.4375 C-98.55436914 154.9781543 -98.05403951 157.49672346 -97.6875 160.0625 C-96.97844963 162.75689141 -96.07493242 163.59277028 -94.0625 165.4375 C-93.7325 166.4275 -93.4025 167.4175 -93.0625 168.4375 C-92.0725 169.0975 -91.0825 169.7575 -90.0625 170.4375 C-89.375 172.5625 -89.375 172.5625 -89.0625 174.4375 C-88.4025 174.4375 -87.7425 174.4375 -87.0625 174.4375 C-86.93875 175.076875 -86.815 175.71625 -86.6875 176.375 C-86.48125 177.055625 -86.275 177.73625 -86.0625 178.4375 C-85.4025 178.7675 -84.7425 179.0975 -84.0625 179.4375 C-83.0625 181.21484375 -83.0625 181.21484375 -82.0625 183.375 C-80.87836997 185.92365488 -80.07492841 187.42507159 -78.0625 189.4375 C-77.66202556 191.76025177 -77.3227896 194.09489357 -77.0625 196.4375 C-75.0825 195.9425 -75.0825 195.9425 -73.0625 195.4375 C-73.7225 196.4275 -74.3825 197.4175 -75.0625 198.4375 C-75.0625 199.7575 -75.0625 201.0775 -75.0625 202.4375 C-74.4025 202.4375 -73.7425 202.4375 -73.0625 202.4375 C-73.0625 207.0575 -73.0625 211.6775 -73.0625 216.4375 C-73.7225 216.4375 -74.3825 216.4375 -75.0625 216.4375 C-77.19790594 222.4990263 -77.30103866 227.98626694 -77.1875 234.375 C-77.17847656 235.34501953 -77.16945312 236.31503906 -77.16015625 237.31445312 C-77.13676107 239.68906407 -77.10398176 242.06314776 -77.0625 244.4375 C-76.4025 244.7675 -75.7425 245.0975 -75.0625 245.4375 C-75.0625 246.4275 -75.0625 247.4175 -75.0625 248.4375 C-74.4025 248.4375 -73.7425 248.4375 -73.0625 248.4375 C-73.0625 249.4275 -73.0625 250.4175 -73.0625 251.4375 C-72.1034375 251.623125 -72.1034375 251.623125 -71.125 251.8125 C-70.444375 252.01875 -69.76375 252.225 -69.0625 252.4375 C-68.7325 253.0975 -68.4025 253.7575 -68.0625 254.4375 C-66.20505793 255.04817144 -66.20505793 255.04817144 -64.0625 255.4375 C-63.464375 255.623125 -62.86625 255.80875 -62.25 256 C-59.17745812 256.61450838 -56.18573592 256.49756223 -53.0625 256.4375 C-53.5575 253.9625 -53.5575 253.9625 -54.0625 251.4375 C-52.7425 252.0975 -51.4225 252.7575 -50.0625 253.4375 C-50.0625 252.7775 -50.0625 252.1175 -50.0625 251.4375 C-49.0725 251.8396875 -49.0725 251.8396875 -48.0625 252.25 C-43.48849171 252.53587552 -40.68082206 250.03227686 -37.0625 247.4375 C-37.3925 246.1175 -37.7225 244.7975 -38.0625 243.4375 C-37.4025 244.0975 -36.7425 244.7575 -36.0625 245.4375 C-35.4025 245.7675 -34.7425 246.0975 -34.0625 246.4375 C-34.0625 245.4475 -34.0625 244.4575 -34.0625 243.4375 C-32.4125 243.7675 -30.7625 244.0975 -29.0625 244.4375 C-29.3925 243.4475 -29.7225 242.4575 -30.0625 241.4375 C-29.4025 241.1075 -28.7425 240.7775 -28.0625 240.4375 C-28.7225 239.4475 -29.3825 238.4575 -30.0625 237.4375 C-28.7425 237.7675 -27.4225 238.0975 -26.0625 238.4375 C-25.7325 237.7775 -25.4025 237.1175 -25.0625 236.4375 C-27.3725 235.7775 -29.6825 235.1175 -32.0625 234.4375 C-33.0525 235.4275 -34.0425 236.4175 -35.0625 237.4375 C-35.3925 236.7775 -35.7225 236.1175 -36.0625 235.4375 C-35.4025 235.1075 -34.7425 234.7775 -34.0625 234.4375 C-34.68125 234.375625 -35.3 234.31375 -35.9375 234.25 C-38.0625 233.4375 -38.0625 233.4375 -39.1875 231 C-39.47625 230.154375 -39.765 229.30875 -40.0625 228.4375 C-41.0525 227.4475 -41.0525 227.4475 -42.0625 226.4375 C-42.46014263 224.44928687 -42.80025349 222.44805661 -43.0625 220.4375 C-41.0825 220.4375 -39.1025 220.4375 -37.0625 220.4375 C-37.3925 219.7775 -37.7225 219.1175 -38.0625 218.4375 C-41.0325 218.4375 -44.0025 218.4375 -47.0625 218.4375 C-47.0625 217.7775 -47.0625 217.1175 -47.0625 216.4375 C-47.7225 216.4375 -48.3825 216.4375 -49.0625 216.4375 C-49.0625 215.7775 -49.0625 215.1175 -49.0625 214.4375 C-49.7225 214.4375 -50.3825 214.4375 -51.0625 214.4375 C-51.0625 211.4675 -51.0625 208.4975 -51.0625 205.4375 C-51.7225 205.4375 -52.3825 205.4375 -53.0625 205.4375 C-53.3925 204.4475 -53.7225 203.4575 -54.0625 202.4375 C-53.0725 201.7775 -52.0825 201.1175 -51.0625 200.4375 C-49.84965124 197.38320927 -49.84965124 197.38320927 -49.0625 194.4375 C-48.4025 194.4375 -47.7425 194.4375 -47.0625 194.4375 C-46.835625 193.695 -46.60875 192.9525 -46.375 192.1875 C-44.75179365 188.78649621 -43.34037524 187.29992911 -40.0625 185.4375 C-36.9375 186.3125 -36.9375 186.3125 -34.0625 187.4375 C-33.0725 186.7775 -32.0825 186.1175 -31.0625 185.4375 C-31.3925 184.7775 -31.7225 184.1175 -32.0625 183.4375 C-26.0078125 183.2421875 -26.0078125 183.2421875 -24.0625 183.4375 C-23.4025 184.0975 -22.7425 184.7575 -22.0625 185.4375 C-21.4025 185.7675 -20.7425 186.0975 -20.0625 186.4375 C-19.0725 185.7775 -18.0825 185.1175 -17.0625 184.4375 C-13.95393 184.20435725 -12.04836231 184.44221256 -9.0625 185.4375 C-8.0725 185.1075 -7.0825 184.7775 -6.0625 184.4375 C-5.7325 185.7575 -5.4025 187.0775 -5.0625 188.4375 C-4.4025 188.1075 -3.7425 187.7775 -3.0625 187.4375 C-3.3925 186.7775 -3.7225 186.1175 -4.0625 185.4375 C-3.4025 186.0975 -2.7425 186.7575 -2.0625 187.4375 C-1.4025 187.7675 -0.7425 188.0975 -0.0625 188.4375 C0.9275 188.1075 1.9175 187.7775 2.9375 187.4375 C3.2675 188.0975 3.5975 188.7575 3.9375 189.4375 C4.5975 189.4375 5.2575 189.4375 5.9375 189.4375 C6.22625 190.55125 6.515 191.665 6.8125 192.8125 C7.62991329 196.44041092 7.62991329 196.44041092 9.9375 198.4375 C10.3515625 201.0390625 10.3515625 201.0390625 10.5625 204.0625 C10.67464844 205.56683594 10.67464844 205.56683594 10.7890625 207.1015625 C10.83804688 207.87242187 10.88703125 208.64328125 10.9375 209.4375 C11.5975 209.4375 12.2575 209.4375 12.9375 209.4375 C12.2775 211.0875 11.6175 212.7375 10.9375 214.4375 C10.2775 214.4375 9.6175 214.4375 8.9375 214.4375 C8.9375 215.0975 8.9375 215.7575 8.9375 216.4375 C8.2775 216.4375 7.6175 216.4375 6.9375 216.4375 C6.9375 217.7575 6.9375 219.0775 6.9375 220.4375 C5.9475 220.4375 4.9575 220.4375 3.9375 220.4375 C3.9375 219.7775 3.9375 219.1175 3.9375 218.4375 C0.9675 218.4375 -2.0025 218.4375 -5.0625 218.4375 C-5.3925 219.0975 -5.7225 219.7575 -6.0625 220.4375 C-3.0925 220.1075 -0.1225 219.7775 2.9375 219.4375 C2.2775 220.4275 1.6175 221.4175 0.9375 222.4375 C0.77050768 225.56271833 0.77050768 225.56271833 0.9375 228.4375 C0.2775 228.4375 -0.3825 228.4375 -1.0625 228.4375 C-0.5675 230.9125 -0.5675 230.9125 -0.0625 233.4375 C-1.7125 233.1075 -3.3625 232.7775 -5.0625 232.4375 C-5.3925 233.0975 -5.7225 233.7575 -6.0625 234.4375 C-7.0525 234.4375 -8.0425 234.4375 -9.0625 234.4375 C-9.0625 235.0975 -9.0625 235.7575 -9.0625 236.4375 C-11.0425 236.4375 -13.0225 236.4375 -15.0625 236.4375 C-13.79303486 241.26192184 -13.79303486 241.26192184 -10.0625 244.4375 C-7.72932784 245.21522405 -5.44814077 245.86165568 -3.0625 246.4375 C-3.0625 247.0975 -3.0625 247.7575 -3.0625 248.4375 C-1.7425 248.4375 -0.4225 248.4375 0.9375 248.4375 C0.9375 249.0975 0.9375 249.7575 0.9375 250.4375 C1.5975 250.4375 2.2575 250.4375 2.9375 250.4375 C2.9375 251.0975 2.9375 251.7575 2.9375 252.4375 C4.2575 252.4375 5.5775 252.4375 6.9375 252.4375 C7.2675 253.0975 7.5975 253.7575 7.9375 254.4375 C9.5875 254.4375 11.2375 254.4375 12.9375 254.4375 C12.9375 255.0975 12.9375 255.7575 12.9375 256.4375 C14.70757714 256.51864106 16.47872098 256.57675505 18.25 256.625 C19.23613281 256.65980469 20.22226562 256.69460938 21.23828125 256.73046875 C23.98324389 256.68028108 23.98324389 256.68028108 25.79296875 254.92578125 C26.35951172 254.18908203 26.35951172 254.18908203 26.9375 253.4375 C26.6075 252.7775 26.2775 252.1175 25.9375 251.4375 C27.5875 251.7675 29.2375 252.0975 30.9375 252.4375 C30.9375 251.1175 30.9375 249.7975 30.9375 248.4375 C31.5975 249.0975 32.2575 249.7575 32.9375 250.4375 C36.78682281 244.66351579 37.55468663 239.2265529 36.9375 232.4375 C36.30235174 230.09539079 35.6388284 227.76065031 34.9375 225.4375 C34.9375 223.4375 34.9375 221.4375 34.9375 219.4375 C34.05835312 216.7805809 34.05835312 216.7805809 32.9375 214.4375 C31.9375 211.4375 31.9375 211.4375 31.9375 210.4375 C32.2675 210.4375 32.5975 210.4375 32.9375 210.4375 C32.97488281 209.82003906 33.01226562 209.20257813 33.05078125 208.56640625 C33.58178177 201.72587017 34.79081138 195.38393766 38.09765625 189.3046875 C38.37480469 188.68851562 38.65195312 188.07234375 38.9375 187.4375 C38.6075 186.7775 38.2775 186.1175 37.9375 185.4375 C38.9275 185.1075 39.9175 184.7775 40.9375 184.4375 C43.69909346 180.80382439 43.08248705 176.78711164 42.9375 172.4375 C43.9275 173.0975 44.9175 173.7575 45.9375 174.4375 C46.98199911 171.30400268 46.87173645 170.44781744 45.9375 167.4375 C46.9275 167.4375 47.9175 167.4375 48.9375 167.4375 C49.2675 168.0975 49.5975 168.7575 49.9375 169.4375 C50.205625 168.468125 50.47375 167.49875 50.75 166.5 C51.141875 165.489375 51.53375 164.47875 51.9375 163.4375 C52.9275 163.1075 53.9175 162.7775 54.9375 162.4375 C56.73912669 159.91522264 56.98589136 158.79237 56.5625 155.6875 C56.35625 154.945 56.15 154.2025 55.9375 153.4375 C56.5975 153.4375 57.2575 153.4375 57.9375 153.4375 C60.10419266 151.80603301 60.85240222 150.80979782 61.46166992 148.14428711 C61.52974854 147.2600708 61.59782715 146.37585449 61.66796875 145.46484375 C61.74853516 144.48193359 61.82910156 143.49902344 61.91210938 142.48632812 C62.01749023 140.9462207 62.01749023 140.9462207 62.125 139.375 C62.2477832 137.87549805 62.2477832 137.87549805 62.37304688 136.34570312 C63.92244573 124.50645628 63.92244573 124.50645628 60.9375 113.4375 C60.380625 112.963125 59.82375 112.48875 59.25 112 C58.816875 111.484375 58.38375 110.96875 57.9375 110.4375 C58.25 107.75 58.25 107.75 58.9375 105.4375 C57.9475 105.7675 56.9575 106.0975 55.9375 106.4375 C56.2675 105.1175 56.5975 103.7975 56.9375 102.4375 C56.2775 102.4375 55.6175 102.4375 54.9375 102.4375 C54.9375 101.1175 54.9375 99.7975 54.9375 98.4375 C53.9475 98.1075 52.9575 97.7775 51.9375 97.4375 C50.9475 96.4475 50.9475 96.4475 49.9375 95.4375 C49.256875 95.293125 48.57625 95.14875 47.875 95 C47.235625 94.814375 46.59625 94.62875 45.9375 94.4375 C45.6075 93.4475 45.2775 92.4575 44.9375 91.4375 C44.2775 91.4375 43.6175 91.4375 42.9375 91.4375 C41.9475 89.9525 41.9475 89.9525 40.9375 88.4375 C40.2775 88.4375 39.6175 88.4375 38.9375 88.4375 C38.9375 87.7775 38.9375 87.1175 38.9375 86.4375 C38.2775 86.4375 37.6175 86.4375 36.9375 86.4375 C36.9375 85.7775 36.9375 85.1175 36.9375 84.4375 C36.2775 84.4375 35.6175 84.4375 34.9375 84.4375 C33.9475 82.4575 33.9475 82.4575 32.9375 80.4375 C32.2775 80.4375 31.6175 80.4375 30.9375 80.4375 C30.9375 79.7775 30.9375 79.1175 30.9375 78.4375 C26.8178623 77.14506464 23.26918317 76.17497375 18.9375 76.4375 C18.9375 75.7775 18.9375 75.1175 18.9375 74.4375 C12.9975 74.4375 7.0575 74.4375 0.9375 74.4375 C0.9375 73.7775 0.9375 73.1175 0.9375 72.4375 C-0.3825 72.4375 -1.7025 72.4375 -3.0625 72.4375 C-3.0625 73.0975 -3.0625 73.7575 -3.0625 74.4375 C-8.3425 74.4375 -13.6225 74.4375 -19.0625 74.4375 C-19.0625 73.7775 -19.0625 73.1175 -19.0625 72.4375 C-19.7225 72.4375 -20.3825 72.4375 -21.0625 72.4375 C-21.0625 73.0975 -21.0625 73.7575 -21.0625 74.4375 C-23.83367304 74.29669445 -26.60432641 74.15006882 -29.375 74 C-30.55352539 73.94102539 -30.55352539 73.94102539 -31.75585938 73.88085938 C-32.8918457 73.81801758 -32.8918457 73.81801758 -34.05078125 73.75390625 C-34.74727783 73.71724854 -35.44377441 73.68059082 -36.16137695 73.64282227 C-38.0625 73.4375 -38.0625 73.4375 -41.0625 72.4375 Z M-117.0625 78.4375 C-116.7325 79.4275 -116.4025 80.4175 -116.0625 81.4375 C-117.0525 81.1075 -118.0425 80.7775 -119.0625 80.4375 C-119.0625 81.0975 -119.0625 81.7575 -119.0625 82.4375 C-119.7225 82.4375 -120.3825 82.4375 -121.0625 82.4375 C-121.0625 83.7575 -121.0625 85.0775 -121.0625 86.4375 C-121.7225 86.4375 -122.3825 86.4375 -123.0625 86.4375 C-123.0625 87.0975 -123.0625 87.7575 -123.0625 88.4375 C-124.3825 88.7675 -125.7025 89.0975 -127.0625 89.4375 C-127.0625 90.4275 -127.0625 91.4175 -127.0625 92.4375 C-127.7225 92.4375 -128.3825 92.4375 -129.0625 92.4375 C-130.39583333 95.4375 -130.39583333 95.4375 -129.0625 98.4375 C-129.7225 98.4375 -130.3825 98.4375 -131.0625 98.4375 C-131.0625 99.0975 -131.0625 99.7575 -131.0625 100.4375 C-131.7225 100.4375 -132.3825 100.4375 -133.0625 100.4375 C-133.16260827 103.94128937 -132.78296209 107.01530506 -132.0625 110.4375 C-132.0625 111.4275 -132.0625 112.4175 -132.0625 113.4375 C-132.7225 113.4375 -133.3825 113.4375 -134.0625 113.4375 C-134.0625 111.7875 -134.0625 110.1375 -134.0625 108.4375 C-134.371875 109.076875 -134.68125 109.71625 -135 110.375 C-136.0625 112.4375 -136.0625 112.4375 -137.0625 113.4375 C-137.14987645 115.29119611 -137.16948153 117.14817541 -137.16015625 119.00390625 C-137.15693359 120.12861328 -137.15371094 121.25332031 -137.15039062 122.41210938 C-137.14201172 123.59611328 -137.13363281 124.78011719 -137.125 126 C-137.12048828 127.18787109 -137.11597656 128.37574219 -137.11132812 129.59960938 C-137.09949675 132.54562226 -137.08301287 135.49153681 -137.0625 138.4375 C-136.4025 138.4375 -135.7425 138.4375 -135.0625 138.4375 C-135.083125 139.406875 -135.10375 140.37625 -135.125 141.375 C-135.41868499 144.31215895 -135.41868499 144.31215895 -134.0625 145.4375 C-133.83225458 147.41103214 -133.60301046 149.38469656 -133.3828125 151.359375 C-132.98938036 153.91188595 -132.15586414 156.10498985 -131.0625 158.4375 C-130.4025 158.4375 -129.7425 158.4375 -129.0625 158.4375 C-129.0625 160.4175 -129.0625 162.3975 -129.0625 164.4375 C-128.4025 164.4375 -127.7425 164.4375 -127.0625 164.4375 C-127.0625 165.7575 -127.0625 167.0775 -127.0625 168.4375 C-126.4025 168.4375 -125.7425 168.4375 -125.0625 168.4375 C-125.0625 170.0875 -125.0625 171.7375 -125.0625 173.4375 C-124.4025 173.4375 -123.7425 173.4375 -123.0625 173.4375 C-123.0625 174.0975 -123.0625 174.7575 -123.0625 175.4375 C-122.4025 175.4375 -121.7425 175.4375 -121.0625 175.4375 C-121.454375 176.118125 -121.84625 176.79875 -122.25 177.5 C-123.21667544 180.99490352 -122.44123991 182.30196159 -120.8671875 185.45703125 C-119.44069557 188.96786332 -119.30922794 192.68553371 -119.0625 196.4375 C-118.4025 196.4375 -117.7425 196.4375 -117.0625 196.4375 C-117.0625 198.0875 -117.0625 199.7375 -117.0625 201.4375 C-113.94224572 199.84105237 -113.94224572 199.84105237 -113.5859375 197.5625 C-113.53695312 196.86125 -113.48796875 196.16 -113.4375 195.4375 C-113.14076087 191.59402174 -113.14076087 191.59402174 -112.0625 189.4375 C-112.15160158 186.87942238 -112.29544246 184.3612399 -112.5 181.8125 C-112.57831055 180.75289062 -112.57831055 180.75289062 -112.65820312 179.671875 C-112.78791207 177.92670013 -112.92454954 176.18204275 -113.0625 174.4375 C-113.701875 174.334375 -114.34125 174.23125 -115 174.125 C-115.680625 173.898125 -116.36125 173.67125 -117.0625 173.4375 C-118.0625 170.4375 -118.0625 170.4375 -117.50390625 166.78125 C-116.84207314 162.14098191 -117.72459356 158.39523126 -119 153.9375 C-119.19529297 153.21046875 -119.39058594 152.4834375 -119.59179688 151.734375 C-120.06901212 149.96518677 -120.5639022 148.20078149 -121.0625 146.4375 C-122.0525 146.4375 -123.0425 146.4375 -124.0625 146.4375 C-124.0625 145.4475 -124.0625 144.4575 -124.0625 143.4375 C-122.5775 142.9425 -122.5775 142.9425 -121.0625 142.4375 C-121.51625 142.025 -121.97 141.6125 -122.4375 141.1875 C-124.12200374 139.37341905 -125.05515971 137.68464373 -126.0625 135.4375 C-125.0725 135.4375 -124.0825 135.4375 -123.0625 135.4375 C-123.04268066 134.86829834 -123.02286133 134.29909668 -123.00244141 133.71264648 C-122.90638242 131.09968288 -122.79703593 128.48743198 -122.6875 125.875 C-122.64109375 124.53211914 -122.64109375 124.53211914 -122.59375 123.16210938 C-122.3088029 116.67956288 -121.08644643 111.44910715 -119 105.3125 C-118.00823572 102.49047411 -118.00823572 102.49047411 -117.5625 99.6875 C-117.0625 97.4375 -117.0625 97.4375 -115.0625 95.4375 C-113.82492123 92.47489474 -113.82492123 92.47489474 -113.0625 89.4375 C-113.3925 88.7775 -113.7225 88.1175 -114.0625 87.4375 C-113.4025 87.4375 -112.7425 87.4375 -112.0625 87.4375 C-111.7325 86.4475 -111.4025 85.4575 -111.0625 84.4375 C-110.0725 84.4375 -109.0825 84.4375 -108.0625 84.4375 C-107.7325 83.7775 -107.4025 83.1175 -107.0625 82.4375 C-107.7225 82.4375 -108.3825 82.4375 -109.0625 82.4375 C-109.0625 81.7775 -109.0625 81.1175 -109.0625 80.4375 C-110.7125 80.7675 -112.3625 81.0975 -114.0625 81.4375 C-114.3925 80.4475 -114.7225 79.4575 -115.0625 78.4375 C-115.7225 78.4375 -116.3825 78.4375 -117.0625 78.4375 Z M72.9375 78.4375 C72.2775 80.7475 71.6175 83.0575 70.9375 85.4375 C71.9275 85.4375 72.9175 85.4375 73.9375 85.4375 C72.9475 86.4275 71.9575 87.4175 70.9375 88.4375 C71.77083333 90.60416667 71.77083333 90.60416667 73.9375 91.4375 C75.9375 93.4375 75.9375 93.4375 75.9375 96.4375 C77.5875 96.1075 79.2375 95.7775 80.9375 95.4375 C80.9375 96.4275 80.9375 97.4175 80.9375 98.4375 C80.2775 98.7675 79.6175 99.0975 78.9375 99.4375 C79.5975 101.0875 80.2575 102.7375 80.9375 104.4375 C80.2775 104.4375 79.6175 104.4375 78.9375 104.4375 C79.2675 105.4275 79.5975 106.4175 79.9375 107.4375 C80.05982618 108.78601275 80.13776452 110.13891369 80.18359375 111.4921875 C80.21646484 112.27207031 80.24933594 113.05195313 80.28320312 113.85546875 C80.34410427 115.48554623 80.40143155 117.11576139 80.45507812 118.74609375 C80.64291537 123.04862991 80.97381675 126.51013349 82.9375 130.4375 C82.2775 130.4375 81.6175 130.4375 80.9375 130.4375 C80.9104797 133.18756608 80.89065117 135.93736546 80.875 138.6875 C80.86662109 139.46480469 80.85824219 140.24210937 80.84960938 141.04296875 C80.84638672 141.79707031 80.84316406 142.55117187 80.83984375 143.328125 C80.83460693 144.01938477 80.82937012 144.71064453 80.82397461 145.42285156 C80.94312029 147.53723898 81.36131763 149.40391515 81.9375 151.4375 C80.9475 151.1075 79.9575 150.7775 78.9375 150.4375 C79.0096875 151.06398438 79.081875 151.69046875 79.15625 152.3359375 C79.2490625 153.15320313 79.341875 153.97046875 79.4375 154.8125 C79.5303125 155.62460938 79.623125 156.43671875 79.71875 157.2734375 C79.9375 159.4375 79.9375 159.4375 79.9375 161.4375 C78.9475 161.9325 78.9475 161.9325 77.9375 162.4375 C77.6075 161.7775 77.2775 161.1175 76.9375 160.4375 C76.2775 162.7475 75.6175 165.0575 74.9375 167.4375 C75.5975 167.4375 76.2575 167.4375 76.9375 167.4375 C76.2775 169.0875 75.6175 170.7375 74.9375 172.4375 C76.9175 171.4475 78.8975 170.4575 80.9375 169.4375 C79.9475 171.0875 78.9575 172.7375 77.9375 174.4375 C78.5975 174.7675 79.2575 175.0975 79.9375 175.4375 C80.5625 177.5 80.5625 177.5 80.9375 179.4375 C81.5975 179.4375 82.2575 179.4375 82.9375 179.4375 C83.27480842 178.00092755 83.60719591 176.56319907 83.9375 175.125 C84.123125 174.32449219 84.30875 173.52398437 84.5 172.69921875 C85.03245823 170.33054062 85.03245823 170.33054062 84.9375 167.4375 C85.9275 166.9425 85.9275 166.9425 86.9375 166.4375 C91.96800518 157.21490717 93.59804823 146.69523866 95.48828125 136.453125 C95.9375 134.4375 95.9375 134.4375 96.9375 133.4375 C97.06522014 130.8623055 97.12271854 128.32576801 97.125 125.75 C97.14336914 124.68749023 97.14336914 124.68749023 97.16210938 123.60351562 C97.17452425 119.12174751 96.51510661 115.68132 94.9375 111.4375 C94.52493605 109.48673465 94.14806873 107.52797401 93.8125 105.5625 C93.64492188 104.59570312 93.47734375 103.62890625 93.3046875 102.6328125 C93.18351562 101.90835938 93.06234375 101.18390625 92.9375 100.4375 C92.2775 100.4375 91.6175 100.4375 90.9375 100.4375 C90.793125 99.674375 90.64875 98.91125 90.5 98.125 C89.9742406 95.35577092 89.9742406 95.35577092 88.9375 92.4375 C88.2775 92.4375 87.6175 92.4375 86.9375 92.4375 C86.9375 91.1175 86.9375 89.7975 86.9375 88.4375 C85.6175 88.7675 84.2975 89.0975 82.9375 89.4375 C82.9375 90.0975 82.9375 90.7575 82.9375 91.4375 C83.9275 91.4375 84.9175 91.4375 85.9375 91.4375 C85.9375 92.0975 85.9375 92.7575 85.9375 93.4375 C82.9675 92.9425 82.9675 92.9425 79.9375 92.4375 C79.9375 91.4475 79.9375 90.4575 79.9375 89.4375 C80.9275 89.1075 81.9175 88.7775 82.9375 88.4375 C82.9375 87.1175 82.9375 85.7975 82.9375 84.4375 C82.2775 84.4375 81.6175 84.4375 80.9375 84.4375 C80.9375 83.7775 80.9375 83.1175 80.9375 82.4375 C79.9475 82.1075 78.9575 81.7775 77.9375 81.4375 C76.9475 81.9325 76.9475 81.9325 75.9375 82.4375 C75.2775 81.1175 74.6175 79.7975 73.9375 78.4375 C73.6075 78.4375 73.2775 78.4375 72.9375 78.4375 Z M68.9375 80.4375 C68.9375 81.0975 68.9375 81.7575 68.9375 82.4375 C68.2775 82.4375 67.6175 82.4375 66.9375 82.4375 C67.2675 83.0975 67.5975 83.7575 67.9375 84.4375 C68.5975 84.1075 69.2575 83.7775 69.9375 83.4375 C69.6075 82.4475 69.2775 81.4575 68.9375 80.4375 Z M57.9375 84.4375 C57.9375 85.0975 57.9375 85.7575 57.9375 86.4375 C58.9275 86.1075 59.9175 85.7775 60.9375 85.4375 C59.9475 85.1075 58.9575 84.7775 57.9375 84.4375 Z M76.9375 100.4375 C77.9375 102.4375 77.9375 102.4375 77.9375 102.4375 Z M-101.0625 107.4375 C-101.0625 108.0975 -101.0625 108.7575 -101.0625 109.4375 C-100.0725 109.1075 -99.0825 108.7775 -98.0625 108.4375 C-99.0525 108.1075 -100.0425 107.7775 -101.0625 107.4375 Z M-105.0625 122.4375 C-104.7325 123.7575 -104.4025 125.0775 -104.0625 126.4375 C-104.0625 125.1175 -104.0625 123.7975 -104.0625 122.4375 C-104.3925 122.4375 -104.7225 122.4375 -105.0625 122.4375 Z M72.9375 175.4375 C72.793125 176.736875 72.64875 178.03625 72.5 179.375 C72.0625 183.3125 72.0625 183.3125 70.9375 184.4375 C70.68369766 188.91081958 70.75227279 193.3953346 70.75 197.875 C70.73775391 199.14150391 70.72550781 200.40800781 70.71289062 201.71289062 C70.71095703 202.92009766 70.70902344 204.12730469 70.70703125 205.37109375 C70.70292236 206.48540771 70.69881348 207.59972168 70.69458008 208.74780273 C70.66162828 211.58871961 70.66162828 211.58871961 72.9375 213.4375 C73.0625 216.5625 73.0625 216.5625 72.9375 219.4375 C73.5975 219.4375 74.2575 219.4375 74.9375 219.4375 C74.92589844 218.75042969 74.91429687 218.06335938 74.90234375 217.35546875 C74.89332031 216.45441406 74.88429688 215.55335938 74.875 214.625 C74.86339844 213.73167969 74.85179687 212.83835937 74.83984375 211.91796875 C74.9375 209.4375 74.9375 209.4375 75.9375 206.4375 C75.6075 205.7775 75.2775 205.1175 74.9375 204.4375 C75.5975 204.1075 76.2575 203.7775 76.9375 203.4375 C76.9375 200.4675 76.9375 197.4975 76.9375 194.4375 C75.6175 194.7675 74.2975 195.0975 72.9375 195.4375 C73.2675 194.4475 73.5975 193.4575 73.9375 192.4375 C75.5875 192.1075 77.2375 191.7775 78.9375 191.4375 C78.6075 188.7975 78.2775 186.1575 77.9375 183.4375 C78.9275 183.7675 79.9175 184.0975 80.9375 184.4375 C80.6075 183.1175 80.2775 181.7975 79.9375 180.4375 C79.2775 180.4375 78.6175 180.4375 77.9375 180.4375 C77.2775 179.1175 76.6175 177.7975 75.9375 176.4375 C74.9475 176.9325 74.9475 176.9325 73.9375 177.4375 C73.6075 176.7775 73.2775 176.1175 72.9375 175.4375 Z M-114.0625 200.4375 C-114.52773063 202.33283342 -114.52773063 202.33283342 -114.6875 204.5 C-114.81125 205.799375 -114.935 207.09875 -115.0625 208.4375 C-112.94327873 207.35006712 -112.94327873 207.35006712 -111.0625 205.4375 C-110.72852213 202.31163125 -110.72852213 202.31163125 -111.0625 199.4375 C-112.2861068 199.3629644 -112.2861068 199.3629644 -114.0625 200.4375 Z M-95.0625 201.4375 C-95.0625 202.7575 -95.0625 204.0775 -95.0625 205.4375 C-94.0725 205.1075 -93.0825 204.7775 -92.0625 204.4375 C-93.0525 203.4475 -94.0425 202.4575 -95.0625 201.4375 Z M50.9375 206.4375 C50.9375 211.0575 50.9375 215.6775 50.9375 220.4375 C52.9175 221.4275 52.9175 221.4275 54.9375 222.4375 C54.6075 221.4475 54.2775 220.4575 53.9375 219.4375 C53.67234371 216.60495739 53.49362734 213.77290184 53.31640625 210.93359375 C53.16428887 208.26897214 53.16428887 208.26897214 50.9375 206.4375 Z M-95.0625 208.4375 C-94.0725 208.9325 -94.0725 208.9325 -93.0625 209.4375 C-93.0625 210.4275 -93.0625 211.4175 -93.0625 212.4375 C-93.7225 212.4375 -94.3825 212.4375 -95.0625 212.4375 C-95.0625 214.7475 -95.0625 217.0575 -95.0625 219.4375 C-93.7425 219.4375 -92.4225 219.4375 -91.0625 219.4375 C-91.3409375 218.3546875 -91.3409375 218.3546875 -91.625 217.25 C-92.08245307 214.30923027 -91.79766357 212.29646942 -91.0625 209.4375 C-92.3825 209.1075 -93.7025 208.7775 -95.0625 208.4375 Z M-9.0625 213.4375 C-9.0625 214.0975 -9.0625 214.7575 -9.0625 215.4375 C-8.4025 215.1075 -7.7425 214.7775 -7.0625 214.4375 C-7.7225 214.1075 -8.3825 213.7775 -9.0625 213.4375 Z M-115.0625 214.4375 C-115.12308594 215.04078125 -115.18367188 215.6440625 -115.24609375 216.265625 C-115.32988281 217.06484375 -115.41367188 217.8640625 -115.5 218.6875 C-115.58121094 219.47640625 -115.66242188 220.2653125 -115.74609375 221.078125 C-116.03884993 223.26114639 -116.48314419 225.3148182 -117.0625 227.4375 C-116.4025 227.4375 -115.7425 227.4375 -115.0625 227.4375 C-113.1546416 224.2625906 -112.9015959 222.33164789 -113.4375 218.6875 C-113.54835938 217.88828125 -113.65921875 217.0890625 -113.7734375 216.265625 C-113.91652344 215.36070312 -113.91652344 215.36070312 -114.0625 214.4375 C-114.3925 214.4375 -114.7225 214.4375 -115.0625 214.4375 Z M-94.0625 223.4375 C-94.3925 224.7575 -94.7225 226.0775 -95.0625 227.4375 C-94.0725 227.9325 -94.0725 227.9325 -93.0625 228.4375 C-93.0625 226.7875 -93.0625 225.1375 -93.0625 223.4375 C-93.3925 223.4375 -93.7225 223.4375 -94.0625 223.4375 Z M74.9375 223.4375 C74.9375 225.4175 74.9375 227.3975 74.9375 229.4375 C75.5975 229.4375 76.2575 229.4375 76.9375 229.4375 C76.9375 227.7875 76.9375 226.1375 76.9375 224.4375 C76.2775 224.1075 75.6175 223.7775 74.9375 223.4375 Z M53.9375 225.4375 C52.51975162 226.62602855 52.51975162 226.62602855 52.83984375 230.03515625 C52.8465178 231.52346867 52.85847817 233.01176432 52.875 234.5 C52.87951172 235.25861328 52.88402344 236.01722656 52.88867188 236.79882812 C52.9004932 238.67841871 52.91842922 240.55796899 52.9375 242.4375 C54.2575 242.1075 55.5775 241.7775 56.9375 241.4375 C57.2675 242.0975 57.5975 242.7575 57.9375 243.4375 C57.9375 242.4475 57.9375 241.4575 57.9375 240.4375 C56.6175 240.1075 55.2975 239.7775 53.9375 239.4375 C54.2675 238.4475 54.5975 237.4575 54.9375 236.4375 C55.5975 236.1075 56.2575 235.7775 56.9375 235.4375 C56.9375 234.4475 56.9375 233.4575 56.9375 232.4375 C55.9475 232.4375 54.9575 232.4375 53.9375 232.4375 C54.2675 230.1275 54.5975 227.8175 54.9375 225.4375 C54.6075 225.4375 54.2775 225.4375 53.9375 225.4375 Z M-97.0625 228.4375 C-96.7325 229.7575 -96.4025 231.0775 -96.0625 232.4375 C-95.4025 231.7775 -94.7425 231.1175 -94.0625 230.4375 C-95.0525 229.7775 -96.0425 229.1175 -97.0625 228.4375 Z M-118.0625 230.4375 C-118.0625 233.4375 -118.0625 233.4375 -118.0625 233.4375 Z M-99.0625 234.4375 C-98.7325 236.0875 -98.4025 237.7375 -98.0625 239.4375 C-97.4025 239.1075 -96.7425 238.7775 -96.0625 238.4375 C-96.7225 237.1175 -97.3825 235.7975 -98.0625 234.4375 C-98.3925 234.4375 -98.7225 234.4375 -99.0625 234.4375 Z M-26.6875 261.9375 C-27.14125 262.4325 -27.595 262.9275 -28.0625 263.4375 C-27.7325 264.4275 -27.4025 265.4175 -27.0625 266.4375 C-28.0525 266.7675 -29.0425 267.0975 -30.0625 267.4375 C-28.9979148 270.04693058 -28.9979148 270.04693058 -27.0625 272.4375 C-23.93614791 272.85496608 -23.93614791 272.85496608 -21.0625 272.4375 C-21.3925 271.4475 -21.7225 270.4575 -22.0625 269.4375 C-20.0625 271.4375 -20.0625 271.4375 -20.0625 272.4375 C-18.0825 272.4375 -16.1025 272.4375 -14.0625 272.4375 C-14.3925 271.7775 -14.7225 271.1175 -15.0625 270.4375 C-13.825 270.499375 -12.5875 270.56125 -11.3125 270.625 C-8.28038698 270.64112826 -7.24001704 270.54401023 -4.5625 268.9375 C-4.0675 268.4425 -3.5725 267.9475 -3.0625 267.4375 C-4.3825 267.1075 -5.7025 266.7775 -7.0625 266.4375 C-7.0625 265.7775 -7.0625 265.1175 -7.0625 264.4375 C-8.0525 264.7675 -9.0425 265.0975 -10.0625 265.4375 C-9.7325 266.4275 -9.4025 267.4175 -9.0625 268.4375 C-10.0525 267.7775 -11.0425 267.1175 -12.0625 266.4375 C-12.0625 265.1175 -12.0625 263.7975 -12.0625 262.4375 C-12.7225 261.7775 -13.3825 261.1175 -14.0625 260.4375 C-14.3925 261.7575 -14.7225 263.0775 -15.0625 264.4375 C-15.990625 264.06625 -16.91875 263.695 -17.875 263.3125 C-18.926875 263.02375 -19.97875 262.735 -21.0625 262.4375 C-22.0525 263.0975 -23.0425 263.7575 -24.0625 264.4375 C-23.7325 263.1175 -23.4025 261.7975 -23.0625 260.4375 C-25.18614481 260.21140663 -25.18614481 260.21140663 -26.6875 261.9375 Z M-19.0625 260.4375 C-18.7325 261.0975 -18.4025 261.7575 -18.0625 262.4375 C-17.7325 261.7775 -17.4025 261.1175 -17.0625 260.4375 C-17.7225 260.4375 -18.3825 260.4375 -19.0625 260.4375 Z M-37.0625 266.4375 C-37.0625 267.0975 -37.0625 267.7575 -37.0625 268.4375 C-35.7425 268.1075 -34.4225 267.7775 -33.0625 267.4375 C-34.3825 267.1075 -35.7025 266.7775 -37.0625 266.4375 Z M-64.0625 274.4375 C-63.4025 275.7575 -62.7425 277.0775 -62.0625 278.4375 C-60.0825 278.4375 -58.1025 278.4375 -56.0625 278.4375 C-56.0625 277.7775 -56.0625 277.1175 -56.0625 276.4375 C-56.7225 276.4375 -57.3825 276.4375 -58.0625 276.4375 C-58.3925 275.7775 -58.7225 275.1175 -59.0625 274.4375 C-60.0525 274.4375 -61.0425 274.4375 -62.0625 274.4375 C-62.7225 274.4375 -63.3825 274.4375 -64.0625 274.4375 Z M12.9375 274.4375 C12.9375 275.0975 12.9375 275.7575 12.9375 276.4375 C12.2775 276.4375 11.6175 276.4375 10.9375 276.4375 C11.2675 277.4275 11.5975 278.4175 11.9375 279.4375 C13.93733534 278.64632096 13.93733534 278.64632096 15.9375 277.4375 C16.2675 276.4475 16.5975 275.4575 16.9375 274.4375 C15.6175 274.4375 14.2975 274.4375 12.9375 274.4375 Z M17.9375 274.4375 C18.2675 275.7575 18.5975 277.0775 18.9375 278.4375 C19.9275 278.1075 20.9175 277.7775 21.9375 277.4375 C21.9375 276.7775 21.9375 276.1175 21.9375 275.4375 C20.6175 275.1075 19.2975 274.7775 17.9375 274.4375 Z M-53.0625 276.4375 C-52.7325 277.0975 -52.4025 277.7575 -52.0625 278.4375 C-51.7325 277.7775 -51.4025 277.1175 -51.0625 276.4375 C-51.7225 276.4375 -52.3825 276.4375 -53.0625 276.4375 Z M-51.0625 280.4375 C-51.0625 281.0975 -51.0625 281.7575 -51.0625 282.4375 C-52.0525 282.9325 -52.0525 282.9325 -53.0625 283.4375 C-52.4025 283.4375 -51.7425 283.4375 -51.0625 283.4375 C-51.0625 284.4275 -51.0625 285.4175 -51.0625 286.4375 C-52.3825 286.7675 -53.7025 287.0975 -55.0625 287.4375 C-55.0625 289.7475 -55.0625 292.0575 -55.0625 294.4375 C-55.7225 294.4375 -56.3825 294.4375 -57.0625 294.4375 C-57.0625 295.7575 -57.0625 297.0775 -57.0625 298.4375 C-57.7225 298.7675 -58.3825 299.0975 -59.0625 299.4375 C-59.0625 300.4275 -59.0625 301.4175 -59.0625 302.4375 C-59.0625 303.0975 -59.0625 303.7575 -59.0625 304.4375 C-59.7225 304.7675 -60.3825 305.0975 -61.0625 305.4375 C-61.91306945 308.99442677 -62.23159807 310.93020578 -61.0625 314.4375 C-61.7225 314.4375 -62.3825 314.4375 -63.0625 314.4375 C-63.7225 316.7475 -64.3825 319.0575 -65.0625 321.4375 C-64.4025 321.4375 -63.7425 321.4375 -63.0625 321.4375 C-64.0525 322.4275 -65.0425 323.4175 -66.0625 324.4375 C-66.3925 323.7775 -66.7225 323.1175 -67.0625 322.4375 C-67.0625 323.4275 -67.0625 324.4175 -67.0625 325.4375 C-66.4025 325.4375 -65.7425 325.4375 -65.0625 325.4375 C-65.0625 326.4275 -65.0625 327.4175 -65.0625 328.4375 C-66.3825 328.4375 -67.7025 328.4375 -69.0625 328.4375 C-69.0625 329.4275 -69.0625 330.4175 -69.0625 331.4375 C-68.4025 331.4375 -67.7425 331.4375 -67.0625 331.4375 C-67.0625 332.4275 -67.0625 333.4175 -67.0625 334.4375 C-69.0425 334.9325 -69.0425 334.9325 -71.0625 335.4375 C-71.0625 336.0975 -71.0625 336.7575 -71.0625 337.4375 C-72.0525 337.9325 -72.0525 337.9325 -73.0625 338.4375 C-73.32527955 340.40834661 -73.58161588 342.38074415 -73.77734375 344.359375 C-74.1295056 346.92581477 -74.96648302 349.09933045 -76.0625 351.4375 C-75.4025 351.4375 -74.7425 351.4375 -74.0625 351.4375 C-74.0625 352.0975 -74.0625 352.7575 -74.0625 353.4375 C-73.0725 353.7675 -72.0825 354.0975 -71.0625 354.4375 C-70.5675 353.9425 -70.5675 353.9425 -70.0625 353.4375 C-67.73432036 353.06989269 -65.4006615 352.73508419 -63.0625 352.4375 C-63.0625 353.7575 -63.0625 355.0775 -63.0625 356.4375 C-62.4025 356.4375 -61.7425 356.4375 -61.0625 356.4375 C-61.0625 357.0975 -61.0625 357.7575 -61.0625 358.4375 C-59.7425 358.7675 -58.4225 359.0975 -57.0625 359.4375 C-57.3925 360.4275 -57.7225 361.4175 -58.0625 362.4375 C-56.7425 363.7575 -55.4225 365.0775 -54.0625 366.4375 C-52.05202055 364.51079053 -51.12490485 363.02306551 -50.828125 360.23828125 C-50.70769635 355.68554638 -50.70769635 355.68554638 -52.0625 351.4375 C-51.0725 351.4375 -50.0825 351.4375 -49.0625 351.4375 C-48.93875 350.138125 -48.815 348.83875 -48.6875 347.5 C-47.99053203 341.32408934 -46.96242999 335.41715417 -44.5 329.6875 C-42.59398897 324.96557317 -42.51645296 320.13733402 -42.2734375 315.09765625 C-42.0625 312.4375 -42.0625 312.4375 -41.0625 311.4375 C-41.02157063 309.10452567 -41.02008277 306.77044775 -41.0625 304.4375 C-40.4025 304.4375 -39.7425 304.4375 -39.0625 304.4375 C-39.0625 301.1375 -39.0625 297.8375 -39.0625 294.4375 C-38.4025 294.4375 -37.7425 294.4375 -37.0625 294.4375 C-37.0625 293.1175 -37.0625 291.7975 -37.0625 290.4375 C-34.4225 290.4375 -31.7825 290.4375 -29.0625 290.4375 C-30.79105926 288.29182087 -30.79105926 288.29182087 -33.0625 286.4375 C-35.28108253 286.57391377 -35.28108253 286.57391377 -37.0625 287.4375 C-37.0625 286.4475 -37.0625 285.4575 -37.0625 284.4375 C-39.0425 284.4375 -41.0225 284.4375 -43.0625 284.4375 C-43.0625 283.7775 -43.0625 283.1175 -43.0625 282.4375 C-44.0525 282.4375 -45.0425 282.4375 -46.0625 282.4375 C-46.0625 281.7775 -46.0625 281.1175 -46.0625 280.4375 C-47.7125 280.4375 -49.3625 280.4375 -51.0625 280.4375 Z M4.9375 280.4375 C5.2675 281.4275 5.5975 282.4175 5.9375 283.4375 C4.9475 283.1075 3.9575 282.7775 2.9375 282.4375 C2.9375 283.0975 2.9375 283.7575 2.9375 284.4375 C1.6175 284.7675 0.2975 285.0975 -1.0625 285.4375 C-0.4025 285.4375 0.2575 285.4375 0.9375 285.4375 C-0.0525 286.9225 -0.0525 286.9225 -1.0625 288.4375 C-1.0625 289.4275 -1.0625 290.4175 -1.0625 291.4375 C-0.4025 291.4375 0.2575 291.4375 0.9375 291.4375 C0.9375 292.4275 0.9375 293.4175 0.9375 294.4375 C-0.0525 294.4375 -1.0425 294.4375 -2.0625 294.4375 C-2.3925 293.7775 -2.7225 293.1175 -3.0625 292.4375 C-3.0625 293.7575 -3.0625 295.0775 -3.0625 296.4375 C-2.4025 296.4375 -1.7425 296.4375 -1.0625 296.4375 C-1.10375 297.654375 -1.145 298.87125 -1.1875 300.125 C-1.19690927 302.81605227 -1.09694687 304.35353576 -0.0625 306.875 C1.42367217 310.6833162 1.09597023 314.39650909 0.9375 318.4375 C1.5975 318.4375 2.2575 318.4375 2.9375 318.4375 C2.90494792 320.48828125 2.87239583 322.5390625 2.83984375 324.58984375 C2.73188816 326.45482141 2.73188816 326.45482141 3.9375 327.4375 C4.16942865 328.95219448 4.34965238 330.47504562 4.5 332 C4.62568359 333.23943359 4.62568359 333.23943359 4.75390625 334.50390625 C4.81449219 335.14199219 4.87507812 335.78007812 4.9375 336.4375 C5.5975 336.4375 6.2575 336.4375 6.9375 336.4375 C6.9375 339.4075 6.9375 342.3775 6.9375 345.4375 C7.5975 345.4375 8.2575 345.4375 8.9375 345.4375 C8.751875 345.953125 8.56625 346.46875 8.375 347 C7.78330483 350.29658739 8.370233 353.15995735 8.9375 356.4375 C10.2575 356.7675 11.5775 357.0975 12.9375 357.4375 C12.9375 358.4275 12.9375 359.4175 12.9375 360.4375 C12.2775 360.4375 11.6175 360.4375 10.9375 360.4375 C10.9375 362.7475 10.9375 365.0575 10.9375 367.4375 C13.12462805 365.83545381 13.12462805 365.83545381 14.9375 363.4375 C14.79400653 360.23795046 14.79400653 360.23795046 13.9375 357.4375 C15.5875 357.7675 17.2375 358.0975 18.9375 358.4375 C21.2148501 355.62240007 21.2148501 355.62240007 20.9375 352.4375 C21.5975 352.4375 22.2575 352.4375 22.9375 352.4375 C22.9375 351.7775 22.9375 351.1175 22.9375 350.4375 C24.9175 350.4375 26.8975 350.4375 28.9375 350.4375 C28.9375 351.0975 28.9375 351.7575 28.9375 352.4375 C29.5975 352.1075 30.2575 351.7775 30.9375 351.4375 C30.9375 350.4475 30.9375 349.4575 30.9375 348.4375 C31.2675 349.7575 31.5975 351.0775 31.9375 352.4375 C32.9275 352.1075 33.9175 351.7775 34.9375 351.4375 C34.0770861 347.10520285 34.0770861 347.10520285 31.9375 343.4375 C29.9375 339.67279412 29.9375 339.67279412 29.9375 338.4375 C30.2675 337.4475 30.5975 336.4575 30.9375 335.4375 C29.56581762 333.24711577 29.56581762 333.24711577 27.9375 331.4375 C26.9475 331.9325 26.9475 331.9325 25.9375 332.4375 C26.14375 331.2 26.35 329.9625 26.5625 328.6875 C26.99857124 325.31840165 26.97153639 323.30908079 24.9375 320.4375 C24.2775 320.4375 23.6175 320.4375 22.9375 320.4375 C22.9375 318.1275 22.9375 315.8175 22.9375 313.4375 C22.2775 313.4375 21.6175 313.4375 20.9375 313.4375 C20.9375 311.4575 20.9375 309.4775 20.9375 307.4375 C20.2775 307.4375 19.6175 307.4375 18.9375 307.4375 C18.9375 305.7875 18.9375 304.1375 18.9375 302.4375 C18.298125 302.31375 17.65875 302.19 17 302.0625 C15.9790625 301.753125 15.9790625 301.753125 14.9375 301.4375 C14.6075 300.7775 14.2775 300.1175 13.9375 299.4375 C14.9275 299.7675 15.9175 300.0975 16.9375 300.4375 C16.9375 298.4575 16.9375 296.4775 16.9375 294.4375 C16.2775 294.1075 15.6175 293.7775 14.9375 293.4375 C14.9375 292.4475 14.9375 291.4575 14.9375 290.4375 C13.9475 289.7775 12.9575 289.1175 11.9375 288.4375 C11.9375 287.4475 11.9375 286.4575 11.9375 285.4375 C10.9475 285.9325 10.9475 285.9325 9.9375 286.4375 C9.9375 285.4475 9.9375 284.4575 9.9375 283.4375 C10.9275 283.1075 11.9175 282.7775 12.9375 282.4375 C9.70958445 280.2855563 8.65349191 280.23663557 4.9375 280.4375 Z M-7.0625 286.4375 C-7.3925 287.4275 -7.7225 288.4175 -8.0625 289.4375 C-6.7425 289.7675 -5.4225 290.0975 -4.0625 290.4375 C-3.7325 289.1175 -3.4025 287.7975 -3.0625 286.4375 C-4.3825 286.4375 -5.7025 286.4375 -7.0625 286.4375 Z M-21.0625 288.4375 C-20.7325 289.7575 -20.4025 291.0775 -20.0625 292.4375 C-19.4025 291.1175 -18.7425 289.7975 -18.0625 288.4375 C-19.0525 288.4375 -20.0425 288.4375 -21.0625 288.4375 Z M-20.0625 303.4375 C-22.2638866 307.24177492 -22.2638866 307.24177492 -23.0625 311.4375 C-21.7425 311.7675 -20.4225 312.0975 -19.0625 312.4375 C-19.0625 309.4675 -19.0625 306.4975 -19.0625 303.4375 C-19.3925 303.4375 -19.7225 303.4375 -20.0625 303.4375 Z M-77.0625 351.4375 C-76.0625 353.4375 -76.0625 353.4375 -76.0625 353.4375 Z M-73.0625 374.4375 C-73.0625 375.4275 -73.0625 376.4175 -73.0625 377.4375 C-72.0725 377.1075 -71.0825 376.7775 -70.0625 376.4375 C-70.3925 375.7775 -70.7225 375.1175 -71.0625 374.4375 C-71.7225 374.4375 -72.3825 374.4375 -73.0625 374.4375 Z " fill="#D8D8D8" transform="translate(270.0625,52.5625)"/>
<path d="M0 0 C0.4125 0.495 0.825 0.99 1.25 1.5 C3.12202338 3.43386092 3.12202338 3.43386092 7 3 C7 3.66 7 4.32 7 5 C7.99 5.33 8.98 5.66 10 6 C10.495 6.515625 10.99 7.03125 11.5 7.5625 C13.01472806 9.34595268 13.01472806 9.34595268 16 9 C16 10.65 16 12.3 16 14 C16.66 14 17.32 14 18 14 C18.474375 14.495 18.94875 14.99 19.4375 15.5 C20.99969942 17.34626591 20.99969942 17.34626591 24 17 C24 17.99 24 18.98 24 20 C23.34 20 22.68 20 22 20 C22 21.32 22 22.64 22 24 C18.04 24.66 14.08 25.32 10 26 C10 27.65 10 29.3 10 31 C9.360625 31.268125 8.72125 31.53625 8.0625 31.8125 C5.66868314 32.88667752 5.66868314 32.88667752 5 36 C4.34 36 3.68 36 3 36 C3 35.34 3 34.68 3 34 C1.865625 34.185625 0.73125 34.37125 -0.4375 34.5625 C-5.07696797 35.16007011 -9.39572681 34.69277259 -14 34 C-14 34.99 -14 35.98 -14 37 C-13.34 37 -12.68 37 -12 37 C-12.33 37.99 -12.66 38.98 -13 40 C-13.66 40 -14.32 40 -15 40 C-15 39.34 -15 38.68 -15 38 C-15.99 38 -16.98 38 -18 38 C-17.95875 38.763125 -17.9175 39.52625 -17.875 40.3125 C-18 43 -18 43 -20 46 C-21.32 45.67 -22.64 45.34 -24 45 C-24 44.01 -24 43.02 -24 42 C-24.66 42 -25.32 42 -26 42 C-27.86008781 23.4395586 -27.86008781 23.4395586 -23.91015625 15.84765625 C-22.77905231 13.89474413 -22.77905231 13.89474413 -23 11 C-21.68 11 -20.36 11 -19 11 C-19.33 10.01 -19.66 9.02 -20 8 C-19.01 7.34 -18.02 6.68 -17 6 C-16.34 6.33 -15.68 6.66 -15 7 C-14.67 5.68 -14.34 4.36 -14 3 C-13.67 3.66 -13.34 4.32 -13 5 C-12.34 4.34 -11.68 3.68 -11 3 C-11 2.34 -11 1.68 -11 1 C-10.443125 1.350625 -9.88625 1.70125 -9.3125 2.0625 C-6.41468152 3.23729128 -4.9482975 2.93104132 -2 2 C-1.34 1.34 -0.68 0.68 0 0 Z " fill="#D5D5D5" transform="translate(301,157)"/>
<path d="M0 0 C1.66842534 0.32441604 3.33480481 0.65939189 5 1 C5.639375 1.12375 6.27875 1.2475 6.9375 1.375 C9.80505731 2.24395676 12.35057229 3.61507188 15 5 C15 5.66 15 6.32 15 7 C15.66 7 16.32 7 17 7 C17 7.66 17 8.32 17 9 C18.65 8.67 20.3 8.34 22 8 C21.96519531 8.56847656 21.93039063 9.13695312 21.89453125 9.72265625 C21.69769408 15.33720226 22.44504683 18.99655005 25 24 C24.505 24.495 24.505 24.495 24 25 C23.84417697 26.34015221 23.74955858 27.68758903 23.68359375 29.03515625 C23.62075195 30.24848633 23.62075195 30.24848633 23.55664062 31.48632812 C23.51732422 32.33646484 23.47800781 33.18660156 23.4375 34.0625 C23.37272461 35.34350586 23.37272461 35.34350586 23.30664062 36.65039062 C23.20023298 38.76672037 23.09958269 40.88333813 23 43 C20 44 20 44 17 43 C17 41.68 17 40.36 17 39 C15.68 38.67 14.36 38.34 13 38 C13 36.35 13 34.7 13 33 C11.68 33.66 10.36 34.32 9 35 C8.505 34.505 8.505 34.505 8 34 C6.14703292 33.8932691 4.29239976 33.81500274 2.4375 33.75 C-3.31420924 33.30386504 -7.89084074 32.25551288 -12 28 C-13 24.6875 -13 24.6875 -13 22 C-13.66 22.33 -14.32 22.66 -15 23 C-17.6723621 23.13415472 -20.32250488 23.04318541 -23 23 C-23.32704762 18.31231745 -22.77558689 15.80358203 -20 12 C-18.3125 10.1875 -18.3125 10.1875 -17 9 C-17.33 8.34 -17.66 7.68 -18 7 C-17.0625 4.875 -17.0625 4.875 -16 3 C-13 4 -13 4 -12 6 C-11.13375 5.2884375 -11.13375 5.2884375 -10.25 4.5625 C-8.01390691 3.00965758 -6.67466448 2.33433306 -4 2 C-1.75 2.4375 -1.75 2.4375 0 3 C0 2.01 0 1.02 0 0 Z " fill="#D7D7D7" transform="translate(200,158)"/>
<path d="M0 0 C0.66 0.33 1.32 0.66 2 1 C2 1.99 2 2.98 2 4 C1.34 4 0.68 4 0 4 C0 4.99 0 5.98 0 7 C0.66 7 1.32 7 2 7 C1.67 7.99 1.34 8.98 1 10 C0.34 10 -0.32 10 -1 10 C-1 9.34 -1 8.68 -1 8 C-1.66 8 -2.32 8 -3 8 C-3.36923077 3.44615385 -3.36923077 3.44615385 -1.5 1.1875 C-1.005 0.795625 -0.51 0.40375 0 0 Z " fill="#C6C6C6" transform="translate(173,171)"/>
<path d="M0 0 C0.99 0 1.98 0 3 0 C3 2.31 3 4.62 3 7 C2.34 7 1.68 7 1 7 C1 8.98 1 10.96 1 13 C0.67 13 0.34 13 0 13 C-0.19397476 11.02145742 -0.38001321 9.0421352 -0.5625 7.0625 C-0.66691406 5.96035156 -0.77132812 4.85820312 -0.87890625 3.72265625 C-0.91886719 2.82417969 -0.95882812 1.92570312 -1 1 C-0.67 0.67 -0.34 0.34 0 0 Z " fill="#B7B7B7" transform="translate(156,260)"/>
<path d="M0 0 C0.33 1.98 0.66 3.96 1 6 C0.01 6.495 0.01 6.495 -1 7 C-1 6.34 -1 5.68 -1 5 C-1.66 5 -2.32 5 -3 5 C-3.66 4.01 -4.32 3.02 -5 2 C-5.66 2 -6.32 2 -7 2 C-7 1.34 -7 0.68 -7 0 C-3.98968256 -0.93423645 -3.13349732 -1.04449911 0 0 Z " fill="#ECECEC" transform="translate(351,228)"/>
<path d="M0 0 C3.875 0.875 3.875 0.875 5 2 C5.04063832 3.66617115 5.042721 5.33388095 5 7 C3.68 6.67 2.36 6.34 1 6 C0 1.125 0 1.125 0 0 Z " fill="#FCFCFC" transform="translate(326,115)"/>
<path d="M0 0 C1.32 0.33 2.64 0.66 4 1 C3.67 3.31 3.34 5.62 3 8 C2.34 8 1.68 8 1 8 C0.67 5.36 0.34 2.72 0 0 Z " fill="#FFFFFF" transform="translate(247,364)"/>
<path d="M0 0 C2.97 0.495 2.97 0.495 6 1 C6.33 2.32 6.66 3.64 7 5 C4.61435923 4.42415568 2.33317216 3.77772405 0 3 C0 2.01 0 1.02 0 0 Z " fill="#C7C7C7" transform="translate(324,294)"/>
<path d="M0 0 C0.66 0.33 1.32 0.66 2 1 C2 1.66 2 2.32 2 3 C2.66 3 3.32 3 4 3 C3.67 3.99 3.34 4.98 3 6 C0.9375 6.6875 0.9375 6.6875 -1 7 C-1 1 -1 1 0 0 Z " fill="#C6C6C6" transform="translate(167,177)"/>
<path d="M0 0 C1.32 0.66 2.64 1.32 4 2 C3.67 3.32 3.34 4.64 3 6 C1.68 5.34 0.36 4.68 -1 4 C-0.67 2.68 -0.34 1.36 0 0 Z " fill="#FFFFFF" transform="translate(325,288)"/>
<path d="M0 0 C0.66 0.99 1.32 1.98 2 3 C1.67 3.99 1.34 4.98 1 6 C0.01 6.33 -0.98 6.66 -2 7 C-2 5.02 -2 3.04 -2 1 C-1.34 0.67 -0.68 0.34 0 0 Z " fill="#F9F9F9" transform="translate(345,271)"/>
<path d="M0 0 C0.66 0 1.32 0 2 0 C2 2.31 2 4.62 2 7 C1.01 7 0.02 7 -1 7 C-1.04254356 5.00045254 -1.04080783 2.99958364 -1 1 C-0.67 0.67 -0.34 0.34 0 0 Z " fill="#FDFDFD" transform="translate(157,243)"/>
<path d="M0 0 C0.763125 0.061875 1.52625 0.12375 2.3125 0.1875 C2.6425 1.1775 2.9725 2.1675 3.3125 3.1875 C0.3425 3.1875 -2.6275 3.1875 -5.6875 3.1875 C-2.6875 0.1875 -2.6875 0.1875 0 0 Z " fill="#FFFFFF" transform="translate(255.6875,235.8125)"/>
<path d="M0 0 C0.99 0 1.98 0 3 0 C2.34 1.98 1.68 3.96 1 6 C0.01 5.67 -0.98 5.34 -2 5 C-1.125 1.125 -1.125 1.125 0 0 Z " fill="#FCFCFC" transform="translate(268,338)"/>
<path d="M0 0 C0.66 0 1.32 0 2 0 C2 0.99 2 1.98 2 3 C2.66 3 3.32 3 4 3 C3.67 3.99 3.34 4.98 3 6 C2.34 6 1.68 6 1 6 C1 5.34 1 4.68 1 4 C0.01 4 -0.98 4 -2 4 C-2 3.34 -2 2.68 -2 2 C-1.34 2 -0.68 2 0 2 C0 1.34 0 0.68 0 0 Z " fill="#BABABA" transform="translate(285,191)"/>
<path d="M0 0 C0.33 0.66 0.66 1.32 1 2 C0.67 2.66 0.34 3.32 0 4 C0.99 4 1.98 4 3 4 C3 4.66 3 5.32 3 6 C0.03 5.505 0.03 5.505 -3 5 C-3 4.01 -3 3.02 -3 2 C-2.01 1.34 -1.02 0.68 0 0 Z " fill="#FEFEFE" transform="translate(353,140)"/>
<path d="M0 0 C0.99 0.33 1.98 0.66 3 1 C1.6875 3 1.6875 3 0 5 C-0.99 5 -1.98 5 -3 5 C-3 4.01 -3 3.02 -3 2 C-2.01 1.34 -1.02 0.68 0 0 Z " fill="#C9C9C9" transform="translate(172,160)"/>
<path d="M0 0 C0.99 0.33 1.98 0.66 3 1 C3 1.99 3 2.98 3 4 C1.02 4.99 1.02 4.99 -1 6 C-1.33 5.34 -1.66 4.68 -2 4 C-1.0625 1.875 -1.0625 1.875 0 0 Z " fill="#E0E0E0" transform="translate(184,161)"/>
<path d="M0 0 C0.66 0 1.32 0 2 0 C2.33 1.98 2.66 3.96 3 6 C2.01 6 1.02 6 0 6 C0 4.02 0 2.04 0 0 Z " fill="#FEFEFE" transform="translate(172,292)"/>
<path d="M0 0 C1.98 0.99 1.98 0.99 4 2 C4 2.99 4 3.98 4 5 C2.68 5.33 1.36 5.66 0 6 C0 4 0 2 0 0 Z " fill="#FBFBFB" transform="translate(240,290)"/>
<path d="M0 0 C1.98 0 3.96 0 6 0 C6 0.99 6 1.98 6 3 C4.35 3 2.7 3 1 3 C0.67 2.01 0.34 1.02 0 0 Z " fill="#FCFCFC" transform="translate(238,236)"/>
<path d="M0 0 C0.66 0.33 1.32 0.66 2 1 C1.67 2.65 1.34 4.3 1 6 C0.01 6 -0.98 6 -2 6 C-2 4.35 -2 2.7 -2 1 C-1.34 0.67 -0.68 0.34 0 0 Z " fill="#FCFCFC" transform="translate(349,206)"/>
<path d="M0 0 C0.66 0.33 1.32 0.66 2 1 C1.67 3.31 1.34 5.62 1 8 C0.34 8 -0.32 8 -1 8 C-0.67 5.36 -0.34 2.72 0 0 Z " fill="#FFFFFF" transform="translate(137,158)"/>
<path d="M0 0 C1.32 0.66 2.64 1.32 4 2 C4 2.66 4 3.32 4 4 C2.02 4 0.04 4 -2 4 C-1.34 2.68 -0.68 1.36 0 0 Z " fill="#FFFFFF" transform="translate(248,374)"/>
<path d="M0 0 C0.99 0.33 1.98 0.66 3 1 C1.68 2.32 0.36 3.64 -1 5 C-1.33 4.01 -1.66 3.02 -2 2 C-1.34 2 -0.68 2 0 2 C0 1.34 0 0.68 0 0 Z " fill="#FFFFFF" transform="translate(252,48)"/>
<path d="M0 0 C0.99 0 1.98 0 3 0 C2.67 1.32 2.34 2.64 2 4 C1.34 4 0.68 4 0 4 C0 2.68 0 1.36 0 0 Z " fill="#C3C3C3" transform="translate(354,174)"/>
<path d="M0 0 C0.66 1.32 1.32 2.64 2 4 C1.01 4 0.02 4 -1 4 C-0.67 2.68 -0.34 1.36 0 0 Z " fill="#FFFFFF" transform="translate(345,238)"/>
<path d="M0 0 C0.33 0.66 0.66 1.32 1 2 C0.01 2.99 -0.98 3.98 -2 5 C-2.33 4.01 -2.66 3.02 -3 2 C-2.01 1.34 -1.02 0.68 0 0 Z " fill="#FFFFFF" transform="translate(179,166)"/>
<path d="M0 0 C0.99 0 1.98 0 3 0 C3 0.99 3 1.98 3 3 C2.01 3 1.02 3 0 3 C0 2.01 0 1.02 0 0 Z " fill="#BFBFBF" transform="translate(224,460)"/>
<path d="M0 0 C0.99 0 1.98 0 3 0 C2.67 0.99 2.34 1.98 2 3 C1.34 3 0.68 3 0 3 C0 2.01 0 1.02 0 0 Z " fill="#AAAAAA" transform="translate(334,426)"/>
<path d="M0 0 C0.99 0 1.98 0 3 0 C2.67 0.99 2.34 1.98 2 3 C1.34 3 0.68 3 0 3 C0 2.01 0 1.02 0 0 Z " fill="#AAAAAA" transform="translate(240,406)"/>
<path d="M0 0 C0.99 0 1.98 0 3 0 C2.67 0.99 2.34 1.98 2 3 C1.34 3 0.68 3 0 3 C0 2.01 0 1.02 0 0 Z " fill="#AAAAAA" transform="translate(418,260)"/>
<path d="M0 0 C0.99 0 1.98 0 3 0 C2.67 0.99 2.34 1.98 2 3 C1.34 3 0.68 3 0 3 C0 2.01 0 1.02 0 0 Z " fill="#AAAAAA" transform="translate(194,244)"/>
<path d="M0 0 C0.99 0 1.98 0 3 0 C2.67 0.99 2.34 1.98 2 3 C1.34 3 0.68 3 0 3 C0 2.01 0 1.02 0 0 Z " fill="#AAAAAA" transform="translate(138,198)"/>
<path d="M0 0 C0.99 0 1.98 0 3 0 C2.67 0.99 2.34 1.98 2 3 C1.34 3 0.68 3 0 3 C0 2.01 0 1.02 0 0 Z " fill="#FFFFFF" transform="translate(288,54)"/>
<path d="M0 0 C0.33 1.32 0.66 2.64 1 4 C0.34 4 -0.32 4 -1 4 C-0.67 2.68 -0.34 1.36 0 0 Z " fill="#FFFFFF" transform="translate(343,258)"/>
<path d="M0 0 C0.99 0.33 1.98 0.66 3 1 C2.34 1.66 1.68 2.32 1 3 C0.67 2.01 0.34 1.02 0 0 Z " fill="#FFFFFF" transform="translate(268,458)"/>
<path d="M0 0 C0.99 0.33 1.98 0.66 3 1 C2.34 1.66 1.68 2.32 1 3 C0.67 2.01 0.34 1.02 0 0 Z " fill="#FFFFFF" transform="translate(200,434)"/>
<path d="M0 0 C0.99 0.33 1.98 0.66 3 1 C2.34 1.66 1.68 2.32 1 3 C0.67 2.01 0.34 1.02 0 0 Z " fill="#FFFFFF" transform="translate(210,408)"/>
<path d="M0 0 C0.99 0.33 1.98 0.66 3 1 C2.34 1.66 1.68 2.32 1 3 C0.67 2.01 0.34 1.02 0 0 Z " fill="#FFFFFF" transform="translate(196,324)"/>
<path d="M0 0 C0.99 0.33 1.98 0.66 3 1 C2.34 1.66 1.68 2.32 1 3 C0.67 2.01 0.34 1.02 0 0 Z " fill="#FFFFFF" transform="translate(300,270)"/>
<path d="M0 0 C0.99 0.33 1.98 0.66 3 1 C2.34 1.66 1.68 2.32 1 3 C0.67 2.01 0.34 1.02 0 0 Z " fill="#FFFFFF" transform="translate(218,270)"/>
<path d="M0 0 C0.99 0.33 1.98 0.66 3 1 C2.34 1.66 1.68 2.32 1 3 C0.67 2.01 0.34 1.02 0 0 Z " fill="#FFFFFF" transform="translate(172,206)"/>
<path d="M0 0 C0.99 0.33 1.98 0.66 3 1 C2.34 1.66 1.68 2.32 1 3 C0.67 2.01 0.34 1.02 0 0 Z " fill="#FFFFFF" transform="translate(292,192)"/>
<path d="M0 0 C0.66 0 1.32 0 2 0 C2 0.66 2 1.32 2 2 C1.34 2 0.68 2 0 2 C0 1.34 0 0.68 0 0 Z " fill="#FFFFFF" transform="translate(264,288)"/>
<path d="M0 0 C0.33 0.66 0.66 1.32 1 2 C0.34 1.67 -0.32 1.34 -1 1 C-0.67 0.67 -0.34 0.34 0 0 Z " fill="#FFFFFF" transform="translate(197,402)"/>
<path d="M0 0 C0.33 0.66 0.66 1.32 1 2 C0.34 1.67 -0.32 1.34 -1 1 C-0.67 0.67 -0.34 0.34 0 0 Z " fill="#FFFFFF" transform="translate(253,392)"/>
<path d="M0 0 C0.33 0.66 0.66 1.32 1 2 C0.34 1.67 -0.32 1.34 -1 1 C-0.67 0.67 -0.34 0.34 0 0 Z " fill="#FFFFFF" transform="translate(249,382)"/>
<path d="M0 0 C0.33 0.66 0.66 1.32 1 2 C0.34 1.67 -0.32 1.34 -1 1 C-0.67 0.67 -0.34 0.34 0 0 Z " fill="#FFFFFF" transform="translate(225,372)"/>
<path d="M0 0 C0.33 0.66 0.66 1.32 1 2 C0.34 1.67 -0.32 1.34 -1 1 C-0.67 0.67 -0.34 0.34 0 0 Z " fill="#FFFFFF" transform="translate(211,362)"/>
<path d="M0 0 C0.33 0.66 0.66 1.32 1 2 C0.34 1.67 -0.32 1.34 -1 1 C-0.67 0.67 -0.34 0.34 0 0 Z " fill="#FFFFFF" transform="translate(229,338)"/>
<path d="M0 0 C0.33 0.66 0.66 1.32 1 2 C0.34 1.67 -0.32 1.34 -1 1 C-0.67 0.67 -0.34 0.34 0 0 Z " fill="#FFFFFF" transform="translate(221,334)"/>
<path d="M0 0 C0.33 0.66 0.66 1.32 1 2 C0.34 1.67 -0.32 1.34 -1 1 C-0.67 0.67 -0.34 0.34 0 0 Z " fill="#FFFFFF" transform="translate(371,324)"/>
<path d="M0 0 C0.33 0.66 0.66 1.32 1 2 C0.34 1.67 -0.32 1.34 -1 1 C-0.67 0.67 -0.34 0.34 0 0 Z " fill="#FFFFFF" transform="translate(355,322)"/>
<path d="M0 0 C0.33 0.66 0.66 1.32 1 2 C0.34 1.67 -0.32 1.34 -1 1 C-0.67 0.67 -0.34 0.34 0 0 Z " fill="#FFFFFF" transform="translate(243,320)"/>
<path d="M0 0 C0.33 0.66 0.66 1.32 1 2 C0.34 1.67 -0.32 1.34 -1 1 C-0.67 0.67 -0.34 0.34 0 0 Z " fill="#FFFFFF" transform="translate(253,318)"/>
<path d="M0 0 C0.33 0.66 0.66 1.32 1 2 C0.34 1.67 -0.32 1.34 -1 1 C-0.67 0.67 -0.34 0.34 0 0 Z " fill="#FFFFFF" transform="translate(331,300)"/>
<path d="M0 0 C0.33 0.66 0.66 1.32 1 2 C0.34 1.67 -0.32 1.34 -1 1 C-0.67 0.67 -0.34 0.34 0 0 Z " fill="#FFFFFF" transform="translate(175,300)"/>
<path d="M0 0 C0.33 0.66 0.66 1.32 1 2 C0.34 1.67 -0.32 1.34 -1 1 C-0.67 0.67 -0.34 0.34 0 0 Z " fill="#FFFFFF" transform="translate(229,298)"/>
<path d="M0 0 C0.33 0.66 0.66 1.32 1 2 C0.34 1.67 -0.32 1.34 -1 1 C-0.67 0.67 -0.34 0.34 0 0 Z " fill="#FFFFFF" transform="translate(237,292)"/>
<path d="M0 0 C0.33 0.66 0.66 1.32 1 2 C0.34 1.67 -0.32 1.34 -1 1 C-0.67 0.67 -0.34 0.34 0 0 Z " fill="#FFFFFF" transform="translate(259,290)"/>
<path d="M0 0 C0.33 0.66 0.66 1.32 1 2 C0.34 1.67 -0.32 1.34 -1 1 C-0.67 0.67 -0.34 0.34 0 0 Z " fill="#FFFFFF" transform="translate(301,256)"/>
<path d="M0 0 C0.33 0.66 0.66 1.32 1 2 C0.34 1.67 -0.32 1.34 -1 1 C-0.67 0.67 -0.34 0.34 0 0 Z " fill="#FFFFFF" transform="translate(343,252)"/>
<path d="M0 0 C0.33 0.66 0.66 1.32 1 2 C0.34 1.67 -0.32 1.34 -1 1 C-0.67 0.67 -0.34 0.34 0 0 Z " fill="#FFFFFF" transform="translate(153,246)"/>
<path d="M0 0 C0.33 0.66 0.66 1.32 1 2 C0.34 1.67 -0.32 1.34 -1 1 C-0.67 0.67 -0.34 0.34 0 0 Z " fill="#FFFFFF" transform="translate(345,232)"/>
<path d="M0 0 C0.33 0.66 0.66 1.32 1 2 C0.34 1.67 -0.32 1.34 -1 1 C-0.67 0.67 -0.34 0.34 0 0 Z " fill="#FFFFFF" transform="translate(349,216)"/>
<path d="M0 0 C0.33 0.66 0.66 1.32 1 2 C0.34 1.67 -0.32 1.34 -1 1 C-0.67 0.67 -0.34 0.34 0 0 Z " fill="#FFFFFF" transform="translate(227,194)"/>
<path d="M0 0 C0.33 0.66 0.66 1.32 1 2 C0.34 1.67 -0.32 1.34 -1 1 C-0.67 0.67 -0.34 0.34 0 0 Z " fill="#FFFFFF" transform="translate(225,190)"/>
<path d="M0 0 C0.33 0.66 0.66 1.32 1 2 C0.34 1.67 -0.32 1.34 -1 1 C-0.67 0.67 -0.34 0.34 0 0 Z " fill="#FFFFFF" transform="translate(197,156)"/>
<path d="M0 0 C0.33 0.66 0.66 1.32 1 2 C0.34 1.67 -0.32 1.34 -1 1 C-0.67 0.67 -0.34 0.34 0 0 Z " fill="#FFFFFF" transform="translate(361,154)"/>
<path d="M0 0 C0.33 0.66 0.66 1.32 1 2 C0.34 1.67 -0.32 1.34 -1 1 C-0.67 0.67 -0.34 0.34 0 0 Z " fill="#FFFFFF" transform="translate(153,138)"/>
<path d="M0 0 C0.33 0.66 0.66 1.32 1 2 C0.34 1.67 -0.32 1.34 -1 1 C-0.67 0.67 -0.34 0.34 0 0 Z " fill="#FFFFFF" transform="translate(369,120)"/>
<path d="M0 0 C0.33 0.66 0.66 1.32 1 2 C0.34 1.67 -0.32 1.34 -1 1 C-0.67 0.67 -0.34 0.34 0 0 Z " fill="#FFFFFF" transform="translate(337,92)"/>
</svg>
